<svg xmlns="http://www.w3.org/2000/svg" xmlns:xlink="http://www.w3.org/1999/xlink" width="1920" zoomAndPan="magnify" viewBox="0 0 1440 809.999993" height="1080" preserveAspectRatio="xMidYMid meet" version="1.0"><defs><clipPath id="967ce65e6c"><path d="M 425.105469 111 L 982.355469 111 L 982.355469 687 L 425.105469 687 Z M 425.105469 111 " clip-rule="nonzero"/></clipPath></defs><rect x="-144" width="1728" fill="#ffffff" y="-80.999999" height="971.999992" fill-opacity="1"/><rect x="-144" width="1728" fill="#ffffff" y="-80.999999" height="971.999992" fill-opacity="1"/><g clip-path="url(#967ce65e6c)"><path fill="#d9d2cc" d="M 461.03125 162.222656 C 473.765625 144.082031 492.457031 133.921875 510.546875 123.746094 C 523.582031 116.414062 538.304688 112.761719 553.992188 112.027344 C 578.660156 110.871094 600.429688 117.972656 619.554688 132.226562 C 631.1875 140.894531 641.472656 151.796875 650.8125 162.984375 C 659.121094 172.941406 665.78125 184.394531 672.308594 195.683594 C 682.21875 212.832031 689.371094 231.195312 694.101562 250.476562 C 698.738281 269.375 702.652344 288.378906 703.257812 307.921875 C 703.285156 308.769531 703.964844 309.601562 704.339844 310.4375 C 705.265625 309.464844 706.863281 308.59375 707.027344 307.503906 C 709.289062 292.347656 715.398438 278.492188 721.101562 264.457031 C 727.042969 249.832031 734.597656 236.152344 744.757812 224.140625 C 753.992188 213.222656 763.632812 202.59375 773.789062 192.535156 C 787.960938 178.5 802.097656 164.285156 817.507812 151.683594 C 833.265625 138.800781 851.421875 129.652344 871.695312 125.394531 C 902.875 118.84375 932.070312 121.683594 955.664062 145.40625 C 969.371094 159.191406 977.066406 176.632812 979.53125 195.988281 C 980.914062 206.855469 982.417969 217.878906 981.996094 228.757812 C 981.277344 247.273438 977.484375 265.382812 972.410156 283.300781 C 964.855469 309.953125 953.113281 334.777344 941.527344 359.769531 C 931.917969 380.511719 923.769531 401.925781 914.304688 422.738281 C 908.476562 435.550781 901.496094 447.851562 894.84375 460.277344 C 888.464844 472.199219 882.171875 484.1875 875.25 495.792969 C 860.488281 520.554688 845.394531 545.117188 830.347656 569.703125 C 811.046875 601.234375 791.882812 632.859375 772.132812 664.109375 C 767.460938 671.503906 761.222656 678.164062 754.703125 684.058594 C 749.113281 689.113281 742.703125 686.804688 737.796875 680.726562 C 733.613281 675.546875 728.484375 671.125 723.695312 666.441406 C 705 648.15625 685.632812 630.5 667.777344 611.425781 C 654.988281 597.765625 643.917969 582.4375 632.628906 567.441406 C 623.039062 554.703125 610.824219 544.90625 598.65625 534.996094 C 588.132812 526.429688 577.496094 518.003906 566.800781 509.65625 C 543.40625 491.402344 521.257812 471.765625 500.882812 450.195312 C 485.320312 433.722656 472.304688 415.351562 460.597656 395.921875 C 446.835938 373.070312 437.796875 348.378906 431.035156 322.851562 C 428.339844 312.691406 427.933594 301.890625 426.875 291.34375 C 426.089844 283.527344 425.101562 275.585938 425.65625 267.804688 C 427.378906 243.644531 431.355469 219.886719 442.328125 197.90625 C 448.261719 186.023438 454.566406 174.328125 461.03125 162.222656 M 827.730469 182.746094 C 816.003906 187.566406 804.660156 192.976562 796.652344 203.382812 C 785.121094 218.363281 772.449219 232.621094 762.386719 248.53125 C 750.226562 267.753906 739.890625 288.179688 729.492188 308.457031 C 720.035156 326.898438 718.238281 347.492188 715.078125 367.574219 C 713.476562 377.738281 713.398438 388.128906 712.285156 398.382812 C 711.242188 408.011719 702.761719 413.019531 696.925781 407.261719 C 694.605469 404.96875 694.988281 399.964844 694.070312 396.210938 C 693.761719 394.957031 693.246094 393.753906 692.824219 392.527344 C 691.941406 393.546875 690.757812 394.429688 690.230469 395.605469 C 687.933594 400.730469 686.058594 406.054688 683.585938 411.085938 C 681.609375 415.101562 674.039062 417.9375 671.082031 415.5625 C 667.480469 412.664062 663.605469 409.703125 666.566406 403.488281 C 671.398438 393.363281 675.445312 382.855469 679.589844 372.414062 C 681.5 367.597656 683.421875 363.117188 680.652344 357.316406 C 673.480469 342.304688 667.117188 326.894531 660.683594 311.539062 C 650.171875 286.445312 636.164062 263.410156 619.570312 241.960938 C 611.085938 230.996094 601.878906 220.578125 592.90625 209.992188 C 575.609375 189.578125 556.363281 171.539062 531.085938 161.316406 C 521.25 157.339844 511.058594 154.476562 500.308594 157.992188 C 490.460938 161.210938 485.085938 169.675781 479.15625 177.074219 C 475.085938 182.15625 472.015625 188.453125 470.027344 194.691406 C 466.847656 204.679688 464.894531 214.945312 467.085938 225.714844 C 468.703125 233.664062 468.171875 242.085938 470.109375 249.921875 C 475.589844 272.042969 483.785156 293.273438 494.453125 313.402344 C 505.417969 334.09375 516.710938 354.636719 528.613281 374.804688 C 541.628906 396.855469 555.148438 418.628906 569.097656 440.105469 C 584.816406 464.304688 601.117188 488.132812 617.453125 511.921875 C 623.785156 521.144531 630.03125 530.695312 637.898438 538.511719 C 646.230469 546.789062 656.230469 553.476562 665.882812 560.324219 C 682.445312 572.078125 699.054688 583.808594 716.121094 594.800781 C 729.035156 603.121094 742.707031 610.265625 756.023438 617.960938 C 759.847656 620.171875 762.730469 620.476562 765.039062 615.609375 C 767.289062 610.863281 770.527344 606.597656 773.210938 602.046875 C 783.804688 584.078125 794.339844 566.074219 804.914062 548.089844 C 814.152344 532.375 823.242188 516.566406 832.703125 500.984375 C 843.257812 483.609375 854.355469 466.554688 864.863281 449.152344 C 878.273438 426.949219 890.628906 404.085938 904.707031 382.328125 C 924.761719 351.324219 932.089844 316.769531 935.066406 280.953125 C 936.070312 268.878906 934.875 256.546875 933.867188 244.398438 C 932.78125 231.351562 929.511719 218.875 922.324219 207.519531 C 908.554688 185.753906 888.867188 173.671875 863.328125 174.074219 C 851.640625 174.257812 840.027344 179.269531 827.730469 182.746094 M 683.003906 297.40625 C 680.097656 282.773438 678.449219 267.738281 673.945312 253.609375 C 668.785156 237.441406 662.066406 221.578125 654.273438 206.484375 C 641.160156 181.078125 623.796875 158.964844 598.636719 144.019531 C 579.398438 132.589844 559.011719 129.5 537.386719 135.496094 C 535.195312 136.101562 533.199219 137.398438 531.109375 138.375 C 533.207031 139.265625 535.300781 140.15625 537.394531 141.050781 C 537.949219 141.289062 538.472656 141.601562 539.039062 141.796875 C 557.679688 148.292969 573.191406 159.945312 587.09375 173.292969 C 600.582031 186.234375 612.640625 200.699219 625.011719 214.769531 C 643.496094 235.800781 657.5625 259.800781 670.519531 284.441406 C 674.984375 292.9375 678.242188 302.0625 682.203125 310.835938 C 682.636719 311.796875 684.058594 312.316406 685.023438 313.042969 C 685.332031 311.855469 686.046875 310.605469 685.878906 309.488281 C 685.304688 305.652344 684.421875 301.863281 683.003906 297.40625 M 449.621094 253.105469 C 448.535156 255.875 446.535156 258.640625 446.53125 261.410156 C 446.515625 270.339844 447.171875 279.277344 447.691406 288.203125 C 447.996094 293.453125 447.886719 298.84375 449.089844 303.90625 C 452.96875 320.179688 456.777344 336.375 463.015625 352.132812 C 475.269531 383.082031 493.136719 410.203125 515.375 434.523438 C 526.394531 446.582031 538.722656 457.457031 550.660156 468.65625 C 557.289062 474.878906 564.292969 480.707031 571.21875 486.601562 C 572.308594 487.527344 573.894531 487.875 575.246094 488.488281 C 574.761719 487.007812 574.609375 485.289062 573.738281 484.082031 C 568.3125 476.535156 562.269531 469.390625 557.28125 461.574219 C 546.253906 444.292969 535.5625 426.792969 525.042969 409.199219 C 510.609375 385.050781 495.644531 361.167969 482.425781 336.359375 C 468.417969 310.070312 454.492188 283.46875 449.621094 253.105469 M 866.84375 154.078125 C 875.71875 152.394531 884.101562 154.675781 892.351562 157.460938 C 916.003906 165.4375 932.820312 181.570312 944.261719 203.136719 C 952.394531 218.457031 956.035156 235.179688 954.917969 252.730469 C 954.832031 254.125 955.714844 255.585938 956.144531 257.015625 C 957.019531 255.554688 958.582031 254.125 958.652344 252.625 C 959.277344 239.589844 960.199219 226.523438 959.863281 213.496094 C 959.644531 205.117188 958.152344 196.609375 956.03125 188.472656 C 948.378906 159.121094 925.152344 142.519531 895.046875 143.859375 C 885.078125 144.300781 875.1875 146.992188 865.324219 148.953125 C 862.503906 149.515625 859.894531 151.121094 857.1875 152.246094 C 859.972656 152.859375 862.753906 153.46875 866.84375 154.078125 M 699.957031 608.824219 C 698.753906 608.054688 697.625 607.109375 696.328125 606.5625 C 694.585938 605.828125 692.714844 605.402344 690.898438 604.84375 C 691.800781 606.226562 692.472656 607.851562 693.636719 608.953125 C 707.203125 621.75 720.785156 634.53125 734.558594 647.101562 C 735.730469 648.167969 738.820312 648.519531 740.148438 647.730469 C 742.679688 646.230469 744.976562 643.921875 746.558594 641.433594 C 747.257812 640.332031 746.570312 636.996094 745.488281 636.332031 C 730.632812 627.210938 715.597656 618.378906 699.957031 608.824219 Z M 699.957031 608.824219 " fill-opacity="1" fill-rule="nonzero"/></g></svg>