<svg xmlns="http://www.w3.org/2000/svg" xmlns:xlink="http://www.w3.org/1999/xlink" width="1080" zoomAndPan="magnify" viewBox="0 0 810 809.999993" height="1080" preserveAspectRatio="xMidYMid meet" version="1.0"><defs><clipPath id="9619d0dfe2"><path d="M 5.925781 5.925781 L 803.925781 5.925781 L 803.925781 803.925781 L 5.925781 803.925781 Z M 5.925781 5.925781 " clip-rule="nonzero"/></clipPath></defs><g clip-path="url(#9619d0dfe2)"><path fill="#000000" d="M 404.925781 803.925781 C 379.320312 803.925781 361.589844 779.847656 345.941406 758.613281 C 336.851562 746.296875 325.578125 730.960938 318.082031 728.984375 C 305.488281 728.773438 291.261719 734.882812 277.351562 740.917969 C 252.125 751.882812 224.160156 761.421875 205.355469 750.496094 C 183.636719 737.933594 180.480469 709.832031 177.425781 682.664062 C 175.691406 667.15625 173.539062 647.863281 167.746094 642.105469 C 161.988281 636.3125 142.695312 634.160156 127.1875 632.425781 C 100.019531 629.371094 71.882812 626.214844 59.355469 604.496094 C 46.972656 583.054688 58.144531 557.34375 68.933594 532.5 C 75.246094 518.035156 83.054688 499.992188 80.867188 491.804688 C 78.855469 484.308594 63.554688 473 51.238281 463.941406 C 30.003906 448.296875 5.925781 430.53125 5.925781 404.925781 C 5.925781 379.320312 30.003906 361.554688 51.273438 345.910156 C 63.554688 336.851562 78.890625 325.542969 80.902344 318.046875 C 83.089844 309.859375 75.246094 291.816406 68.933594 277.351562 C 58.144531 252.472656 46.972656 226.765625 59.355469 205.355469 C 71.882812 183.671875 100.019531 180.480469 127.222656 177.425781 C 142.695312 175.691406 161.988281 173.539062 167.78125 167.746094 C 173.539062 161.953125 175.726562 142.695312 177.425781 127.1875 C 180.480469 100.019531 183.636719 71.917969 205.390625 59.355469 C 224.125 48.496094 252.125 57.96875 277.351562 68.933594 C 291.261719 74.96875 305.625 81.214844 314.960938 81.214844 C 325.578125 78.855469 336.851562 63.519531 345.941406 51.203125 C 361.589844 30.003906 379.355469 5.925781 404.925781 5.925781 C 430.53125 5.925781 448.261719 30.003906 463.910156 51.238281 C 473 63.554688 484.273438 78.890625 491.769531 80.867188 C 504.085938 80.730469 518.589844 74.96875 532.5 68.933594 C 557.65625 57.96875 585.621094 48.394531 604.496094 59.355469 C 626.214844 71.917969 629.371094 100.019531 632.425781 127.1875 C 634.160156 142.695312 636.3125 161.988281 642.105469 167.746094 C 647.863281 173.539062 667.15625 175.691406 682.664062 177.425781 C 709.832031 180.480469 737.96875 183.636719 750.496094 205.355469 C 762.882812 226.796875 751.707031 252.507812 740.917969 277.351562 C 734.605469 291.816406 726.796875 309.859375 728.984375 318.046875 C 730.996094 325.542969 746.296875 336.851562 758.613281 345.910156 C 779.847656 361.554688 803.925781 379.320312 803.925781 404.925781 C 803.925781 430.53125 779.847656 448.296875 758.578125 463.941406 C 746.296875 473 730.960938 484.308594 728.949219 491.804688 C 726.761719 500.027344 734.570312 518.035156 740.882812 532.5 C 751.707031 557.378906 762.882812 583.089844 750.460938 604.496094 C 737.933594 626.179688 709.796875 629.371094 682.59375 632.425781 C 667.121094 634.160156 647.832031 636.3125 642.035156 642.105469 C 636.277344 647.898438 634.089844 667.15625 632.390625 682.664062 C 629.335938 709.867188 626.179688 737.96875 604.425781 750.53125 C 585.691406 761.390625 557.726562 751.917969 532.46875 740.917969 C 518.589844 734.882812 504.226562 728.636719 494.855469 728.636719 C 484.238281 730.996094 472.964844 746.332031 463.875 758.648438 C 448.261719 779.847656 430.496094 803.925781 404.925781 803.925781 Z M 314.925781 693.941406 C 319.191406 693.941406 323.253906 694.460938 327.035156 695.46875 C 346.289062 700.601562 360.308594 719.648438 373.875 738.039062 C 383 750.460938 396.875 769.230469 404.925781 769.230469 C 412.976562 769.230469 426.820312 750.460938 435.980469 738.039062 C 449.578125 719.617188 463.597656 700.566406 482.851562 695.433594 C 501.308594 690.4375 524.835938 699.734375 546.34375 709.066406 C 560.050781 715 574.207031 721.175781 583.226562 721.175781 C 584.441406 721.175781 586.105469 721.039062 587.113281 720.449219 C 593.703125 716.667969 596.273438 693.835938 597.972656 678.742188 C 600.539062 655.707031 603.210938 631.871094 617.574219 617.507812 C 631.941406 603.140625 655.777344 600.46875 678.8125 597.867188 C 693.941406 596.167969 716.734375 593.601562 720.515625 587.042969 C 724.125 580.761719 715.105469 560.015625 709.136719 546.277344 C 699.804688 524.835938 690.160156 502.664062 695.46875 482.75 C 700.601562 463.527344 719.648438 449.511719 738.074219 435.945312 C 750.460938 426.820312 769.230469 412.976562 769.230469 404.925781 C 769.230469 396.875 750.460938 383.03125 738.039062 373.839844 C 719.648438 360.273438 700.601562 346.253906 695.433594 327.035156 C 690.125 307.117188 699.769531 284.949219 709.101562 263.507812 C 715.070312 249.765625 724.125 228.984375 720.484375 222.738281 C 716.699219 216.179688 693.871094 213.613281 678.8125 211.914062 C 655.777344 209.3125 631.90625 206.640625 617.574219 192.277344 C 603.210938 177.914062 600.539062 154.078125 597.9375 131.039062 C 596.238281 115.945312 593.703125 93.152344 587.113281 89.335938 C 586.105469 88.746094 584.441406 88.605469 583.226562 88.605469 C 574.171875 88.605469 560.015625 94.78125 546.34375 100.714844 C 524.835938 110.082031 501.171875 119.242188 482.851562 114.351562 C 463.597656 109.214844 449.578125 90.167969 436.011719 71.777344 C 426.855469 59.390625 412.976562 40.621094 404.925781 40.621094 C 396.875 40.621094 383.03125 59.390625 373.875 71.8125 C 360.273438 90.238281 346.253906 109.285156 327 114.417969 C 308.507812 119.449219 285.019531 110.117188 263.507812 100.785156 C 249.835938 94.816406 235.679688 88.640625 226.660156 88.640625 C 225.445312 88.640625 223.78125 88.777344 222.773438 89.367188 C 216.179688 93.183594 213.613281 115.980469 211.949219 131.074219 C 209.347656 154.109375 206.675781 177.945312 192.3125 192.3125 C 177.945312 206.675781 154.109375 209.347656 131.074219 211.949219 C 115.980469 213.613281 93.183594 216.179688 89.367188 222.738281 C 85.761719 229.019531 94.816406 249.765625 100.75 263.507812 C 110.082031 284.949219 119.726562 307.117188 114.417969 327.035156 C 109.285156 346.253906 90.238281 360.273438 71.8125 373.839844 C 59.390625 383.03125 40.621094 396.875 40.621094 404.925781 C 40.621094 412.976562 59.390625 426.820312 71.8125 436.011719 C 90.203125 449.578125 109.25 463.597656 114.417969 482.816406 C 119.726562 502.734375 110.082031 524.902344 100.75 546.34375 C 94.78125 560.085938 85.726562 580.867188 89.367188 587.113281 C 93.152344 593.671875 115.980469 596.238281 131.039062 597.9375 C 154.078125 600.539062 177.945312 603.210938 192.277344 617.574219 C 206.640625 631.941406 209.3125 655.777344 211.914062 678.8125 C 213.613281 693.90625 216.148438 716.699219 222.738281 720.515625 C 223.746094 721.105469 225.410156 721.246094 226.625 721.246094 C 235.679688 721.246094 249.835938 715.070312 263.507812 709.136719 C 280.644531 701.644531 298.375 693.941406 314.925781 693.941406 Z M 314.925781 693.941406 " fill-opacity="1" fill-rule="nonzero"/></g><path fill="#000000" d="M 300.839844 491.664062 C 295.496094 491.664062 290.292969 489.167969 286.960938 484.726562 L 214.101562 387.578125 L 214.101562 474.316406 C 214.101562 483.894531 206.328125 491.664062 196.753906 491.664062 C 187.175781 491.664062 179.402344 483.894531 179.402344 474.316406 L 179.402344 335.535156 C 179.402344 328.074219 184.191406 321.449219 191.269531 319.089844 C 198.3125 316.695312 206.15625 319.160156 210.628906 325.125 L 283.492188 422.273438 L 283.492188 335.535156 C 283.492188 325.957031 291.261719 318.1875 300.839844 318.1875 C 310.414062 318.1875 318.1875 325.957031 318.1875 335.535156 L 318.1875 474.316406 C 318.1875 481.777344 313.398438 488.402344 306.320312 490.761719 C 304.515625 491.386719 302.679688 491.664062 300.839844 491.664062 Z M 300.839844 491.664062 " fill-opacity="1" fill-rule="nonzero"/><path fill="#000000" d="M 439.621094 491.664062 L 370.230469 491.664062 C 360.652344 491.664062 352.882812 483.894531 352.882812 474.316406 L 352.882812 335.535156 C 352.882812 325.957031 360.652344 318.1875 370.230469 318.1875 L 439.621094 318.1875 C 449.199219 318.1875 456.96875 325.957031 456.96875 335.535156 C 456.96875 345.109375 449.199219 352.882812 439.621094 352.882812 L 387.578125 352.882812 L 387.578125 456.96875 L 439.621094 456.96875 C 449.199219 456.96875 456.96875 464.742188 456.96875 474.316406 C 456.96875 483.894531 449.199219 491.664062 439.621094 491.664062 Z M 439.621094 491.664062 " fill-opacity="1" fill-rule="nonzero"/><path fill="#000000" d="M 439.621094 422.273438 L 370.230469 422.273438 C 360.652344 422.273438 352.882812 414.5 352.882812 404.925781 C 352.882812 395.351562 360.652344 387.578125 370.230469 387.578125 L 439.621094 387.578125 C 449.199219 387.578125 456.96875 395.351562 456.96875 404.925781 C 456.96875 414.5 449.199219 422.273438 439.621094 422.273438 Z M 439.621094 422.273438 " fill-opacity="1" fill-rule="nonzero"/><path fill="#000000" d="M 613.101562 491.664062 C 605.640625 491.664062 599.011719 486.910156 596.621094 479.800781 L 578.402344 425.085938 L 560.1875 479.800781 C 557.761719 487.085938 551.757812 491.976562 543.050781 491.628906 C 535.347656 491.351562 528.753906 485.976562 526.882812 478.515625 L 492.183594 339.734375 C 489.894531 330.433594 495.515625 321.03125 504.816406 318.707031 C 513.941406 316.347656 523.515625 322.003906 525.839844 331.335938 L 546.066406 412.316406 L 561.921875 364.75 C 566.675781 350.59375 590.132812 350.59375 594.851562 364.75 L 610.707031 412.316406 L 630.933594 331.335938 C 633.222656 322.003906 642.589844 316.382812 651.960938 318.707031 C 661.292969 321.03125 666.914062 330.433594 664.589844 339.734375 L 629.894531 478.515625 C 628.019531 486.007812 621.425781 491.351562 613.722656 491.628906 C 613.550781 491.664062 613.308594 491.664062 613.101562 491.664062 Z M 613.101562 491.664062 " fill-opacity="1" fill-rule="nonzero"/></svg>