<svg xmlns="http://www.w3.org/2000/svg" xmlns:xlink="http://www.w3.org/1999/xlink" width="1920" zoomAndPan="magnify" viewBox="0 0 1440 809.999993" height="1080" preserveAspectRatio="xMidYMid meet" version="1.0"><defs><clipPath id="dbd5092be3"><path d="M 614.78125 370 L 917.796875 370 L 917.796875 672.609375 L 614.78125 672.609375 Z M 614.78125 370 " clip-rule="nonzero"/></clipPath><clipPath id="b41652bba0"><path d="M 643 89.863281 L 879 89.863281 L 879 315 L 643 315 Z M 643 89.863281 " clip-rule="nonzero"/></clipPath><clipPath id="3bb31f26fb"><path d="M 1007.394531 215.085938 L 1130.917969 215.085938 L 1130.917969 353.351562 L 1007.394531 353.351562 Z M 1007.394531 215.085938 " clip-rule="nonzero"/></clipPath></defs><rect x="-144" width="1728" fill="#ffffff" y="-80.999999" height="971.999992" fill-opacity="1"/><rect x="-144" width="1728" fill="#ffffff" y="-80.999999" height="971.999992" fill-opacity="1"/><g clip-path="url(#dbd5092be3)"><path fill="#d9d2cc" d="M 906.996094 491.667969 C 906.558594 491.667969 906.117188 491.699219 905.675781 491.761719 C 903.277344 492.109375 901.15625 493.371094 899.703125 495.3125 C 898.253906 497.257812 897.644531 499.652344 897.996094 502.046875 C 898.910156 508.386719 899.378906 514.871094 899.378906 521.324219 C 899.378906 594.734375 839.636719 654.453125 766.203125 654.453125 C 692.769531 654.453125 633.027344 594.734375 633.027344 521.324219 C 633.027344 447.914062 692.769531 388.195312 766.203125 388.195312 C 784.1875 388.195312 801.625 391.710938 818.035156 398.652344 C 826.742188 402.332031 835.089844 406.972656 842.84375 412.433594 C 844.382812 413.519531 846.1875 414.09375 848.058594 414.09375 C 851.015625 414.09375 853.796875 412.65625 855.496094 410.242188 C 858.378906 406.152344 857.394531 400.476562 853.304688 397.59375 C 844.492188 391.386719 835.007812 386.117188 825.113281 381.933594 C 806.449219 374.039062 786.628906 370.039062 766.203125 370.039062 C 745.777344 370.039062 725.953125 374.039062 707.292969 381.933594 C 689.273438 389.554688 673.089844 400.457031 659.191406 414.347656 C 645.296875 428.242188 634.386719 444.417969 626.761719 462.433594 C 618.871094 481.09375 614.867188 500.90625 614.867188 521.324219 C 614.867188 541.742188 618.871094 561.558594 626.761719 580.214844 C 634.386719 598.226562 645.296875 614.410156 659.191406 628.300781 C 673.085938 642.191406 689.273438 653.09375 707.292969 660.714844 C 725.953125 668.605469 745.773438 672.609375 766.203125 672.609375 C 786.628906 672.609375 806.449219 668.605469 825.113281 660.714844 C 843.136719 653.09375 859.316406 642.1875 873.214844 628.300781 C 887.109375 614.410156 898.019531 598.226562 905.640625 580.214844 C 913.535156 561.558594 917.539062 541.742188 917.539062 521.324219 C 917.539062 514 917.007812 506.640625 915.964844 499.445312 C 915.320312 495.007812 911.46875 491.667969 906.996094 491.667969 " fill-opacity="1" fill-rule="nonzero"/></g><path fill="#d9d2cc" d="M 937.746094 377.550781 C 936.011719 376.003906 933.785156 375.15625 931.46875 375.15625 C 928.777344 375.15625 926.214844 376.300781 924.425781 378.304688 L 759.582031 562.820312 L 709.515625 502.867188 C 707.71875 500.710938 705.078125 499.476562 702.269531 499.476562 C 700.070312 499.476562 697.925781 500.257812 696.234375 501.667969 C 694.300781 503.28125 693.113281 505.550781 692.886719 508.058594 C 692.660156 510.574219 693.425781 513.019531 695.035156 514.949219 L 752.101562 583.285156 C 753.859375 585.394531 756.441406 586.625 759.183594 586.671875 L 759.351562 586.675781 C 762.03125 586.671875 764.589844 585.523438 766.375 583.527344 L 938.496094 390.863281 C 941.957031 386.984375 941.621094 381.011719 937.746094 377.550781 " fill-opacity="1" fill-rule="nonzero"/><g clip-path="url(#b41652bba0)"><path fill="#d9d2cc" d="M 765.460938 258.296875 C 764.109375 257.484375 762.589844 257.074219 761.066406 257.074219 C 759.546875 257.074219 758.027344 257.484375 756.675781 258.296875 L 706.3125 288.65625 L 719.632812 231.394531 C 720.351562 228.324219 719.304688 225.109375 716.921875 223.042969 L 672.472656 184.542969 L 731.070312 179.511719 C 734.214844 179.246094 736.949219 177.257812 738.175781 174.351562 L 761.066406 120.195312 L 783.960938 174.351562 C 785.1875 177.257812 787.921875 179.246094 791.066406 179.511719 L 849.664062 184.542969 L 805.214844 223.042969 C 802.832031 225.109375 801.789062 228.324219 802.5 231.394531 L 815.824219 288.65625 Z M 820.226562 232.535156 L 876.007812 184.21875 C 878.589844 181.980469 879.582031 178.421875 878.527344 175.171875 C 877.46875 171.921875 874.570312 169.617188 871.167969 169.328125 L 797.628906 163.011719 L 768.902344 95.050781 C 767.570312 91.90625 764.484375 89.863281 761.066406 89.863281 C 757.652344 89.863281 754.566406 91.90625 753.234375 95.050781 L 724.503906 163.011719 L 650.972656 169.328125 C 647.566406 169.617188 644.667969 171.921875 643.613281 175.171875 C 642.554688 178.421875 643.546875 181.980469 646.128906 184.21875 L 701.910156 232.535156 L 685.191406 304.398438 C 684.417969 307.726562 685.714844 311.191406 688.476562 313.203125 C 689.960938 314.28125 691.714844 314.824219 693.472656 314.824219 C 694.988281 314.824219 696.511719 314.417969 697.863281 313.601562 L 761.066406 275.5 L 824.269531 313.601562 C 825.628906 314.417969 827.144531 314.824219 828.660156 314.824219 C 828.667969 314.820312 828.675781 314.820312 828.683594 314.824219 C 833.378906 314.824219 837.1875 311.019531 837.1875 306.324219 C 837.1875 305.449219 837.050781 304.609375 836.808594 303.8125 L 820.226562 232.535156 " fill-opacity="1" fill-rule="nonzero"/></g><path fill="#d9d2cc" d="M 650.070312 237.109375 L 631.679688 253.035156 C 629.4375 254.980469 628.453125 258.003906 629.125 260.894531 L 639.417969 305.132812 L 600.511719 281.683594 C 597.96875 280.144531 594.785156 280.144531 592.246094 281.683594 L 553.335938 305.132812 L 563.628906 260.894531 C 564.300781 258.003906 563.316406 254.980469 561.074219 253.035156 L 526.738281 223.296875 L 572.003906 219.410156 C 574.960938 219.15625 577.535156 217.289062 578.691406 214.554688 L 596.378906 172.714844 L 614.0625 214.554688 C 615.78125 218.625 620.476562 220.527344 624.546875 218.808594 C 628.621094 217.089844 630.523438 212.394531 628.804688 208.324219 L 603.75 149.050781 C 602.496094 146.085938 599.59375 144.164062 596.378906 144.164062 C 593.164062 144.164062 590.257812 146.085938 589.007812 149.050781 L 565.828125 203.882812 L 506.5 208.976562 C 503.296875 209.25 500.566406 211.414062 499.574219 214.472656 C 498.578125 217.53125 499.511719 220.886719 501.941406 222.988281 L 546.945312 261.972656 L 533.457031 319.949219 C 532.730469 323.082031 533.949219 326.34375 536.546875 328.230469 C 537.945312 329.25 539.597656 329.761719 541.253906 329.761719 C 542.679688 329.761719 544.109375 329.378906 545.386719 328.609375 L 596.378906 297.871094 L 647.367188 328.609375 C 650.121094 330.269531 653.601562 330.125 656.203125 328.230469 C 658.804688 326.34375 660.023438 323.082031 659.292969 319.949219 L 645.808594 261.972656 L 660.550781 249.199219 C 663.890625 246.308594 664.253906 241.25 661.359375 237.914062 C 658.46875 234.574219 653.414062 234.210938 650.070312 237.109375 " fill-opacity="1" fill-rule="nonzero"/><path fill="#d9d2cc" d="M 975.1875 261.972656 L 1020.195312 222.988281 C 1022.625 220.886719 1023.558594 217.53125 1022.5625 214.472656 C 1021.570312 211.414062 1018.84375 209.25 1015.636719 208.976562 L 956.308594 203.882812 L 933.132812 149.050781 C 931.878906 146.085938 928.976562 144.164062 925.757812 144.164062 C 922.546875 144.164062 919.636719 146.085938 918.386719 149.050781 L 893.335938 208.324219 C 891.613281 212.394531 893.515625 217.089844 897.585938 218.808594 C 901.664062 220.527344 906.355469 218.625 908.078125 214.554688 L 925.757812 172.71875 L 943.445312 214.554688 C 944.601562 217.289062 947.175781 219.15625 950.132812 219.410156 L 995.402344 223.296875 L 961.0625 253.035156 C 958.820312 254.980469 957.835938 258.003906 958.507812 260.894531 L 968.800781 305.132812 L 929.890625 281.683594 C 927.351562 280.144531 924.171875 280.144531 921.625 281.683594 L 882.71875 305.132812 L 893.007812 260.894531 C 893.6875 258.003906 892.703125 254.980469 890.457031 253.035156 L 872.066406 237.109375 C 868.722656 234.210938 863.671875 234.574219 860.777344 237.914062 C 857.882812 241.25 858.242188 246.308594 861.585938 249.199219 L 876.328125 261.972656 L 862.84375 319.949219 C 862.109375 323.082031 863.332031 326.34375 865.933594 328.230469 C 868.53125 330.125 872.015625 330.273438 874.769531 328.609375 L 925.757812 297.871094 L 976.753906 328.609375 C 978.03125 329.378906 979.460938 329.761719 980.886719 329.761719 C 982.539062 329.761719 984.191406 329.25 985.589844 328.230469 C 988.191406 326.34375 989.40625 323.082031 988.679688 319.949219 L 975.1875 261.972656 " fill-opacity="1" fill-rule="nonzero"/><path fill="#d9d2cc" d="M 502.269531 282.304688 L 487.980469 294.683594 C 485.878906 296.507812 484.957031 299.339844 485.585938 302.050781 L 492.148438 330.257812 L 467.339844 315.304688 C 464.957031 313.867188 461.972656 313.867188 459.59375 315.304688 L 434.78125 330.257812 L 441.34375 302.050781 C 441.972656 299.339844 441.050781 296.507812 438.949219 294.683594 L 417.054688 275.71875 L 445.917969 273.242188 C 448.691406 273.003906 451.105469 271.25 452.1875 268.6875 L 463.464844 242.011719 L 474.742188 268.6875 C 476.351562 272.5 480.757812 274.289062 484.570312 272.675781 C 488.386719 271.066406 490.175781 266.667969 488.5625 262.847656 L 470.375 219.824219 C 469.203125 217.046875 466.480469 215.246094 463.464844 215.246094 C 460.449219 215.246094 457.730469 217.046875 456.554688 219.824219 L 440.128906 258.683594 L 398.082031 262.292969 C 395.078125 262.550781 392.519531 264.578125 391.589844 267.445312 C 390.65625 270.316406 391.53125 273.457031 393.8125 275.433594 L 425.703125 303.058594 L 416.144531 344.148438 C 415.464844 347.085938 416.605469 350.144531 419.042969 351.914062 C 421.480469 353.683594 424.746094 353.824219 427.328125 352.269531 L 463.464844 330.480469 L 499.605469 352.269531 C 500.800781 352.988281 502.140625 353.347656 503.480469 353.347656 C 505.03125 353.347656 506.578125 352.863281 507.886719 351.914062 C 510.328125 350.144531 511.46875 347.085938 510.785156 344.148438 L 501.226562 303.058594 L 512.097656 293.640625 C 515.230469 290.929688 515.566406 286.191406 512.855469 283.0625 C 510.140625 279.929688 505.402344 279.589844 502.269531 282.304688 " fill-opacity="1" fill-rule="nonzero"/><g clip-path="url(#3bb31f26fb)"><path fill="#d9d2cc" d="M 1130.546875 267.445312 C 1129.617188 264.578125 1127.058594 262.550781 1124.054688 262.292969 L 1082.011719 258.683594 L 1065.585938 219.824219 C 1064.410156 217.046875 1061.6875 215.246094 1058.671875 215.246094 C 1055.660156 215.246094 1052.9375 217.046875 1051.761719 219.824219 L 1033.574219 262.847656 C 1031.964844 266.667969 1033.746094 271.0625 1037.566406 272.675781 C 1041.382812 274.292969 1045.785156 272.503906 1047.394531 268.6875 L 1058.671875 242.011719 L 1069.949219 268.6875 C 1071.03125 271.25 1073.445312 273.003906 1076.21875 273.242188 L 1105.082031 275.71875 L 1083.1875 294.683594 C 1081.085938 296.507812 1080.164062 299.339844 1080.796875 302.050781 L 1087.355469 330.257812 L 1062.546875 315.304688 C 1060.164062 313.867188 1057.179688 313.867188 1054.796875 315.304688 L 1029.988281 330.257812 L 1036.554688 302.050781 C 1037.179688 299.339844 1036.261719 296.507812 1034.15625 294.683594 L 1019.867188 282.304688 C 1016.734375 279.59375 1011.996094 279.929688 1009.285156 283.0625 C 1006.566406 286.191406 1006.910156 290.929688 1010.039062 293.640625 L 1020.914062 303.058594 L 1011.351562 344.148438 C 1010.667969 347.085938 1011.8125 350.144531 1014.25 351.914062 C 1016.6875 353.683594 1019.953125 353.824219 1022.535156 352.269531 L 1058.671875 330.480469 L 1094.8125 352.269531 C 1096.007812 352.988281 1097.347656 353.347656 1098.683594 353.347656 C 1100.238281 353.347656 1101.785156 352.863281 1103.097656 351.914062 C 1105.53125 350.144531 1106.671875 347.085938 1105.992188 344.148438 L 1096.433594 303.058594 L 1128.328125 275.433594 C 1130.605469 273.457031 1131.484375 270.316406 1130.546875 267.445312 " fill-opacity="1" fill-rule="nonzero"/></g></svg>