<svg xmlns="http://www.w3.org/2000/svg" xmlns:xlink="http://www.w3.org/1999/xlink" width="1920" zoomAndPan="magnify" viewBox="0 0 1440 809.999993" height="1080" preserveAspectRatio="xMidYMid meet" version="1.0"><rect x="-144" width="1728" fill="#ffffff00" y="-80.999999" height="971.999992" fill-opacity="1"/><rect x="-144" width="1728" fill="#ffffff00" y="-80.999999" height="971.999992" fill-opacity="1"/><path fill="#d9d2cc" d="M 331.433594 226.871094 C 340.878906 216.480469 350.875 206.65625 361.425781 197.394531 C 371.976562 188.136719 383.015625 179.496094 394.539062 171.480469 C 406.0625 163.464844 418.003906 156.125 430.355469 149.457031 C 442.707031 142.789062 455.394531 136.835938 468.417969 131.601562 C 493.679688 121.671875 519.582031 113.878906 546.121094 108.214844 C 577.347656 101.371094 608.980469 96.625 641.027344 96.128906 C 711.351562 95.035156 780.609375 110.5 848.476562 127.371094 C 904.382812 141.230469 961.691406 154.492188 1013.292969 180.878906 C 1060.808594 205.171875 1101.9375 242.222656 1120.132812 293.527344 C 1122.210938 299.476562 1124.007812 305.511719 1125.523438 311.628906 C 1127.042969 317.746094 1128.269531 323.917969 1129.210938 330.152344 C 1130.152344 336.382812 1130.800781 342.644531 1131.160156 348.9375 C 1131.519531 355.230469 1131.582031 361.527344 1131.355469 367.824219 C 1131.125 374.121094 1130.605469 380.394531 1129.792969 386.644531 C 1128.980469 392.894531 1127.878906 399.09375 1126.488281 405.242188 C 1125.097656 411.390625 1123.425781 417.457031 1121.472656 423.449219 C 1119.515625 429.441406 1117.285156 435.328125 1114.785156 441.109375 C 1109.632812 452.898438 1103.296875 464.007812 1095.769531 474.4375 C 1088.242188 484.867188 1079.695312 494.382812 1070.132812 502.980469 C 1048.988281 521.953125 1023.753906 536.011719 997.214844 545.9375 C 939.75 567.449219 877.996094 570.363281 817.324219 570.605469 C 750.949219 570.875 682.753906 568.160156 618.175781 586.222656 C 567.484375 600.425781 518.148438 627.234375 486.1875 670.089844 C 478.460938 680.464844 472.035156 691.59375 466.914062 703.476562 L 473.769531 703.476562 C 447.246094 658.871094 444.734375 601.503906 467.582031 554.855469 C 469 552.015625 466.617188 547.753906 463.097656 549.019531 C 425.003906 562.820312 383.082031 555.777344 348.523438 535.769531 C 344.035156 533.199219 339.683594 530.417969 335.460938 527.429688 C 331.242188 524.441406 327.171875 521.257812 323.257812 517.878906 C 319.34375 514.5 315.597656 510.941406 312.023438 507.203125 C 308.445312 503.46875 305.058594 499.566406 301.855469 495.503906 C 298.65625 491.441406 295.65625 487.238281 292.855469 482.886719 C 290.054688 478.539062 287.472656 474.0625 285.101562 469.464844 C 282.730469 464.867188 280.582031 460.167969 278.664062 455.367188 C 276.742188 450.5625 275.054688 445.679688 273.601562 440.714844 C 260.671875 395.613281 266.304688 346.992188 283.449219 303.851562 C 301.050781 259.5625 331.007812 221.886719 368.335938 192.707031 C 406.042969 163.226562 449.6875 141.953125 493.695312 123.664062 C 499.175781 121.378906 504.695312 119.132812 510.214844 116.917969 C 514.898438 115.042969 512.855469 107.363281 508.101562 109.265625 C 462.203125 127.726562 416.601562 148.230469 376.113281 177.042969 C 335.976562 205.65625 302.695312 242.519531 281.890625 287.492188 C 261.722656 331.128906 252.949219 380.832031 262.488281 428.386719 C 263.558594 433.738281 264.886719 439.023438 266.46875 444.246094 C 268.046875 449.46875 269.875 454.601562 271.949219 459.648438 C 274.023438 464.695312 276.332031 469.632812 278.882812 474.457031 C 281.429688 479.28125 284.203125 483.96875 287.203125 488.527344 C 290.203125 493.085938 293.414062 497.488281 296.835938 501.734375 C 300.257812 505.984375 303.875 510.058594 307.691406 513.957031 C 311.503906 517.859375 315.496094 521.566406 319.667969 525.082031 C 323.835938 528.597656 328.167969 531.90625 332.65625 535.003906 C 366.488281 558.519531 409.550781 570.25 450.226562 561.03125 C 455.304688 559.875 460.289062 558.402344 465.183594 556.617188 L 460.699219 550.78125 C 436.570312 599.984375 438.871094 660.265625 466.902344 707.410156 C 468.320312 709.738281 472.578125 710.25 473.757812 707.410156 C 495.625 656.769531 541.980469 622.40625 592.332031 603.035156 C 654.054688 579.292969 720.988281 578.511719 786.242188 578.511719 C 849.65625 578.511719 913.875 578.9375 975.398438 561.375 C 1028.722656 546.164062 1079.375 516.683594 1109.191406 468.632812 C 1136.15625 425.25 1144.984375 371.515625 1135.773438 321.503906 C 1133.503906 308.90625 1130.007812 296.664062 1125.285156 284.769531 C 1120.5625 272.878906 1114.707031 261.574219 1107.714844 250.855469 C 1092.6875 228.136719 1072.5625 209.007812 1050.207031 193.53125 C 1003.445312 161.179688 947.625 144.554688 893.167969 130.410156 C 826.394531 113.070312 758.695312 95.617188 689.679688 89.910156 C 654.59375 87.011719 619.214844 87.511719 584.398438 92.976562 C 556.292969 97.246094 528.621094 103.464844 501.386719 111.636719 C 448.4375 127.824219 399.046875 153.710938 357.308594 190.320312 C 346.234375 200.046875 335.734375 210.359375 325.816406 221.261719 C 322.367188 225.027344 327.972656 230.664062 331.492188 226.941406 Z M 331.433594 226.871094 " fill-opacity="1" fill-rule="nonzero"/></svg>