<svg xmlns="http://www.w3.org/2000/svg" xmlns:xlink="http://www.w3.org/1999/xlink" width="1080" zoomAndPan="magnify" viewBox="0 0 810 809.999993" height="1080" preserveAspectRatio="xMidYMid meet" version="1.0"><defs><clipPath id="6cecd1f5e5"><path d="M 3.398438 160.402344 L 806.441406 160.402344 L 806.441406 649.402344 L 3.398438 649.402344 Z M 3.398438 160.402344 " clip-rule="nonzero"/></clipPath></defs><g clip-path="url(#6cecd1f5e5)"><path fill="#d9d2cc" d="M 797.40625 502.414062 C 797.097656 508.664062 796.839844 520 796.824219 527.597656 C 796.804688 543.449219 795.964844 560.453125 794.601562 572.4375 C 792.28125 592.992188 787.265625 623.9375 785.203125 630.480469 C 784.25 633.511719 784.421875 632.105469 786.671875 618.328125 C 792.507812 582.535156 793.640625 567.070312 795.039062 503.644531 C 795.828125 467.847656 795.476562 437.71875 794.070312 420.417969 C 792.105469 396.265625 791.683594 378.144531 792.507812 352.542969 C 793.261719 329.019531 793.015625 255.820312 792.136719 240.222656 C 791.898438 236.121094 791.984375 233.988281 792.378906 234.226562 C 792.707031 234.433594 793.117188 235.363281 793.28125 236.296875 C 793.449219 237.230469 794.597656 242.828125 795.84375 248.742188 C 797.964844 258.851562 798.136719 260.476562 798.667969 276.074219 C 798.976562 285.195312 799.503906 296.527344 799.851562 301.257812 C 803.242188 348.222656 802.667969 395.550781 797.40625 502.414062 Z M 782.363281 638.167969 C 779.960938 642.910156 778.84375 643.375 769.800781 643.378906 C 765.5625 643.378906 753.941406 643.039062 743.972656 642.625 C 730.40625 642.058594 713.257812 642.007812 675.777344 642.425781 C 618.449219 643.0625 605.222656 642.773438 565.5 640.007812 C 542.609375 638.417969 526 638.117188 445.042969 637.832031 C 356.199219 637.515625 346.90625 637.644531 290.570312 639.988281 C 274.855469 640.640625 257.4375 641.34375 251.863281 641.546875 C 246.289062 641.746094 235.367188 642.304688 227.597656 642.78125 C 219.824219 643.257812 207.800781 643.988281 200.871094 644.40625 C 183.300781 645.464844 109.769531 645.480469 96.734375 644.429688 C 68.566406 642.15625 55 640.578125 50.199219 639.007812 C 45 637.316406 44.585938 635.351562 46.664062 622.191406 C 47.332031 617.96875 47.882812 614.265625 47.882812 613.964844 C 47.890625 613.664062 49.03125 614.707031 50.421875 616.289062 C 54.414062 620.820312 55.675781 621.28125 63.867188 621.183594 C 68.238281 621.132812 74.914062 620.457031 81.378906 619.414062 C 93.726562 617.414062 92.929688 617.433594 180.597656 616.933594 C 213.542969 616.742188 242.433594 616.472656 244.796875 616.328125 C 247.164062 616.179688 263.199219 615.914062 280.429688 615.726562 C 297.664062 615.542969 322.546875 614.953125 335.726562 614.425781 C 385.152344 612.433594 428.546875 611.921875 459.214844 612.964844 C 468.675781 613.292969 485.675781 613.84375 496.996094 614.191406 C 544.3125 615.660156 595.105469 617.890625 616.492188 619.441406 C 632.75 620.625 644.730469 622.011719 671.785156 625.851562 C 739.085938 635.410156 746.609375 636.367188 763.960938 637.59375 C 775.960938 638.445312 779.4375 638.125 782.0625 635.917969 C 784.304688 634.03125 784.335938 634.277344 782.363281 638.167969 Z M 41.746094 565.371094 C 39.59375 541.722656 39.789062 543.34375 37.113281 526.371094 C 31.765625 492.46875 30.488281 471.976562 32.15625 446.828125 C 34.789062 407.132812 34.769531 389.160156 32.0625 361.144531 C 31.210938 352.300781 31.015625 342.832031 30.972656 307.707031 C 30.914062 262.617188 30.941406 263.136719 27.921875 248.363281 C 26.648438 242.136719 23.9375 213.921875 23.9375 206.859375 C 23.933594 202.765625 24.171875 200.75 24.699219 200.40625 C 25.378906 199.96875 33.683594 198.675781 37.222656 198.457031 C 38.503906 198.378906 38.53125 198.574219 38.621094 208.910156 C 38.671875 214.703125 38.433594 225.277344 38.097656 232.402344 C 37.355469 247.902344 36.472656 325.976562 36.660156 359.609375 C 36.828125 391.199219 37.734375 402.441406 43.292969 442.21875 C 46.238281 463.273438 49.035156 490.488281 49.875 506.269531 C 50.804688 523.707031 49.804688 550.609375 47.316406 575.109375 C 46.328125 584.859375 45.390625 592.953125 45.242188 593.105469 C 44.636719 593.710938 43.5 584.699219 41.746094 565.371094 Z M 39.953125 603.761719 C 34.695312 603.761719 27.269531 602.128906 23.679688 600.179688 C 21.371094 598.925781 20.355469 597.886719 19.375 595.777344 C 18.1875 593.203125 18.097656 591.925781 18.097656 577.351562 C 18.097656 568.734375 18.484375 546.347656 18.960938 527.597656 C 19.898438 490.679688 19.671875 466.882812 18.117188 437.613281 C 14.65625 372.585938 13.070312 348.390625 10.394531 319.75 C 8.617188 300.695312 7.804688 283.21875 7.722656 262.257812 C 7.660156 245.3125 7.789062 242.757812 9.054688 235.535156 C 11.863281 219.476562 14.289062 210.933594 17.664062 205.199219 L 19.324219 202.367188 L 19.765625 209.410156 C 20.007812 213.285156 20.789062 222.402344 21.496094 229.679688 C 22.203125 236.957031 23.667969 247.742188 24.742188 253.65625 L 26.695312 264.402344 L 26.726562 306.789062 C 26.746094 341.570312 26.933594 351.011719 27.773438 359.46875 C 28.335938 365.132812 29.132812 376.800781 29.546875 385.394531 C 30.355469 402.179688 29.84375 421.269531 27.859375 448.714844 C 27.210938 457.660156 26.996094 466 27.21875 473.546875 C 27.535156 484.277344 29.292969 503.8125 30.675781 511.9375 C 33.4375 528.1875 35.714844 544.351562 36.511719 553.398438 C 39.429688 586.324219 40.171875 591.667969 43.332031 602.378906 C 43.71875 603.707031 43.589844 603.761719 39.953125 603.761719 Z M 40.910156 328.898438 C 41.195312 305.925781 41.34375 279.667969 41.242188 270.546875 C 41.132812 261.320312 41.476562 245.105469 42.007812 234 C 42.539062 223.023438 42.96875 210.539062 42.976562 206.257812 C 42.976562 200.640625 43.191406 198.378906 43.746094 198.117188 C 44.921875 197.566406 80.144531 198.257812 102.878906 199.277344 C 114.03125 199.773438 127.578125 200.46875 132.980469 200.816406 C 181.359375 203.925781 205.59375 204.535156 278.660156 204.496094 C 314.4375 204.472656 356.015625 204.742188 371.050781 205.089844 C 386.089844 205.4375 418.296875 205.730469 442.625 205.738281 C 507.1875 205.761719 531.21875 206.496094 555.054688 209.164062 C 593.324219 213.449219 607.222656 214.21875 681.921875 216.175781 C 706.476562 216.816406 720.789062 217.570312 735.375 218.992188 C 745.167969 219.949219 763.386719 222.046875 767.472656 222.6875 L 769.773438 223.054688 L 769.78125 230.523438 C 769.796875 245.351562 772.339844 274.683594 774.667969 286.824219 C 776.5 296.324219 778.800781 311.621094 780.027344 322.449219 C 780.949219 330.578125 781.109375 337.941406 781.121094 372.8125 C 781.144531 417.9375 781.21875 416.78125 776.75 443.757812 C 773.015625 466.316406 772.339844 471.511719 770.058594 495.351562 C 767.304688 524.152344 766.832031 534.277344 767.394531 553.089844 C 768.046875 575.21875 768.019531 604.691406 767.34375 606.460938 C 766.890625 607.644531 765.902344 608.273438 763.199219 609.113281 C 755.664062 611.4375 703.234375 609.890625 665.027344 606.214844 C 629.71875 602.8125 571.960938 598.589844 551.367188 597.898438 C 533.1875 597.292969 381.273438 598.734375 356 599.757812 C 343.496094 600.261719 311.980469 600.953125 285.960938 601.289062 C 239.140625 601.894531 225.453125 602.304688 194.421875 604.046875 C 158.203125 606.074219 145.617188 606.464844 115.167969 606.492188 C 89.285156 606.515625 81.082031 606.320312 71.96875 605.449219 C 65.785156 604.859375 58.070312 604.375 54.828125 604.375 L 48.9375 604.375 L 49.324219 598.082031 C 49.535156 594.617188 50.394531 585.011719 51.238281 576.738281 C 53.503906 554.4375 54.039062 544.136719 54.035156 522.695312 C 54.027344 499.101562 51.910156 473.15625 47.535156 443.144531 C 44.550781 422.691406 41.738281 396.878906 41.070312 383.871094 C 40.601562 374.761719 40.554688 357.714844 40.910156 328.898438 Z M 46.679688 177.464844 C 48.648438 173.785156 56.75 173.316406 82.605469 175.398438 C 88.6875 175.890625 98.917969 176.824219 105.335938 177.480469 C 111.757812 178.136719 125.304688 179.265625 135.441406 179.996094 C 177.414062 183.003906 174.519531 182.734375 170.460938 183.226562 C 163.242188 184.097656 119.246094 187.277344 105.949219 187.886719 C 98.515625 188.230469 83.449219 188.796875 72.46875 189.148438 C 61.488281 189.5 50.632812 189.953125 48.355469 190.152344 C 44.230469 190.515625 44.207031 190.507812 44.207031 188.957031 C 44.207031 186.820312 45.910156 178.902344 46.679688 177.464844 Z M 142.660156 196.976562 C 141.5625 197.113281 139.765625 197.113281 138.667969 196.976562 C 137.570312 196.84375 138.464844 196.730469 140.660156 196.730469 C 142.859375 196.730469 143.757812 196.84375 142.660156 196.976562 Z M 212.886719 184.9375 C 214.933594 184.898438 224.613281 185.277344 234.390625 185.789062 C 256.917969 186.957031 270.84375 187.777344 281.351562 188.554688 C 298.707031 189.835938 318.066406 191 322.019531 191 C 324.28125 191.003906 326.300781 191.28125 326.511719 191.617188 C 326.757812 192.019531 323.285156 192.238281 316.5625 192.246094 C 310.882812 192.25 292.414062 192.542969 275.515625 192.890625 C 218.445312 194.070312 131.945312 193.363281 121.691406 191.628906 L 118.851562 191.148438 L 121.691406 191.078125 C 123.25 191.039062 135.277344 190.152344 148.417969 189.113281 C 171.695312 187.273438 205.40625 185.089844 212.886719 184.9375 Z M 276.285156 182.164062 C 292.148438 181.628906 308.691406 180.648438 354.464844 177.523438 C 388.875 175.171875 405.773438 173.757812 439.554688 170.417969 C 460.59375 168.339844 476.4375 167.21875 496.382812 166.40625 C 534.429688 164.851562 626.792969 164.148438 652.125 165.21875 C 675.457031 166.207031 709.082031 168.460938 738.75 171.027344 C 748.214844 171.84375 758.6875 172.695312 762.039062 172.917969 C 767.292969 173.265625 768.3125 173.515625 769.558594 174.765625 C 770.351562 175.558594 771.007812 176.8125 771.007812 177.554688 C 771.007812 178.855469 770.859375 178.882812 766.246094 178.503906 C 745.566406 176.785156 725.832031 176.683594 696.972656 178.144531 C 669.542969 179.53125 634.417969 180.640625 601.441406 181.167969 C 567.941406 181.703125 550.378906 182.3125 530.171875 183.644531 C 517.800781 184.457031 487.011719 185.835938 441.089844 187.632812 C 399.804688 189.246094 370.304688 189.542969 351.082031 188.542969 C 313.628906 186.59375 302.101562 185.929688 286.882812 184.84375 C 277.589844 184.179688 268.535156 183.636719 266.761719 183.636719 C 264.988281 183.636719 263.539062 183.398438 263.539062 183.113281 C 263.539062 182.824219 269.273438 182.394531 276.285156 182.164062 Z M 498.636719 201.652344 C 498.980469 201.996094 394.617188 201.359375 359.992188 200.808594 C 337.183594 200.449219 293.363281 200.226562 262.617188 200.316406 C 223.375 200.433594 201.761719 200.246094 190.121094 199.683594 C 141.441406 197.339844 140.6875 197.457031 204.863281 197.449219 C 268.347656 197.4375 340.710938 196.25 371.664062 194.710938 C 377.242188 194.433594 385.386719 194.164062 389.765625 194.113281 C 394.148438 194.0625 397.847656 193.90625 397.984375 193.765625 C 398.125 193.625 400.34375 193.632812 402.921875 193.78125 C 405.496094 193.929688 411.753906 194.195312 416.820312 194.371094 C 424.4375 194.628906 447.542969 196.265625 460.441406 197.457031 C 462.128906 197.613281 466.832031 198.027344 470.882812 198.378906 C 477.632812 198.960938 498.394531 201.414062 498.636719 201.652344 Z M 769.773438 205.746094 L 769.773438 212.195312 C 769.773438 216.382812 769.542969 218.644531 769.113281 218.644531 C 768.753906 218.644531 763.980469 218.101562 758.519531 217.429688 C 725.722656 213.433594 718.136719 213.019531 632.769531 210.636719 C 620.4375 210.292969 604.125 209.519531 596.523438 208.917969 L 582.699219 207.824219 L 590.378906 207.390625 C 611.484375 206.203125 630.285156 205.929688 697.128906 205.84375 Z M 771.464844 183.28125 C 771.566406 183.378906 771.300781 187.527344 770.863281 192.496094 L 770.082031 201.535156 L 704.472656 201.472656 C 653.539062 201.421875 633.335938 201.628906 614.160156 202.402344 C 596.761719 203.105469 581.378906 203.316406 562.117188 203.113281 C 532.195312 202.804688 536.902344 203.214844 501.910156 197.839844 C 490.144531 196.035156 478.613281 194.75 460.441406 193.214844 L 443.851562 191.820312 L 450.917969 191.417969 C 454.804688 191.191406 471.390625 190.449219 487.78125 189.761719 C 504.167969 189.074219 521.863281 188.242188 527.097656 187.914062 C 552.410156 186.332031 561.308594 186.015625 594.988281 185.484375 C 614.925781 185.171875 638.285156 184.632812 646.902344 184.28125 C 691.945312 182.460938 709.46875 181.707031 711.410156 181.515625 C 715.984375 181.054688 756.945312 181.75 763.921875 182.40625 C 767.972656 182.785156 771.363281 183.179688 771.464844 183.28125 Z M 775.429688 223.769531 C 776.542969 223.964844 779.832031 224.3125 782.734375 224.535156 L 788.015625 224.941406 L 788.535156 245.59375 C 788.824219 256.953125 788.9375 284.90625 788.800781 307.707031 C 788.324219 385.550781 788.492188 402.652344 789.957031 421.421875 C 791.46875 440.820312 791.664062 466.964844 790.667969 515.621094 C 789.757812 559.960938 788.621094 576.867188 784.789062 603.453125 C 781.898438 623.457031 780.277344 631.871094 779.09375 633.054688 C 778.234375 633.914062 776.816406 633.988281 768.261719 633.648438 C 753.160156 633.054688 740.035156 631.433594 673.015625 621.875 C 634.511719 616.382812 622.773438 615.304688 579.628906 613.300781 C 550.398438 611.941406 532.503906 611.238281 499.453125 610.15625 C 483.066406 609.617188 463.296875 608.957031 455.527344 608.683594 C 439.113281 608.109375 384.332031 608.472656 362.449219 609.300781 C 323.890625 610.761719 308.433594 611.199219 271.832031 611.863281 C 250.203125 612.253906 200.855469 612.757812 162.164062 612.984375 C 91.125 613.398438 89.757812 613.441406 77.738281 615.773438 C 75.007812 616.300781 69.71875 616.894531 65.980469 617.089844 C 57.550781 617.53125 55.773438 616.863281 52.5625 612.023438 C 51.347656 610.191406 50.351562 608.53125 50.351562 608.328125 C 50.351562 607.882812 59.117188 608.40625 74.621094 609.78125 C 95.648438 611.648438 138.75 611.113281 190.121094 608.351562 C 199.242188 607.859375 212.238281 607.175781 218.996094 606.832031 C 225.753906 606.484375 251.742188 605.9375 276.746094 605.609375 C 318.863281 605.058594 330.917969 604.765625 377.195312 603.140625 C 386.488281 602.816406 411.921875 602.542969 433.71875 602.535156 C 455.511719 602.527344 486.476562 602.242188 502.527344 601.898438 C 547.394531 600.933594 572.210938 602.234375 665.949219 610.472656 C 700.265625 613.492188 740.183594 615.207031 753.796875 614.25 C 763.398438 613.578125 766.675781 612.894531 769.300781 611.03125 C 772.449219 608.792969 772.492188 608.09375 771.695312 568.601562 C 770.921875 529.878906 770.925781 529.578125 773.773438 500.265625 C 776.023438 477.183594 777.488281 465.371094 780.210938 448.367188 C 785.640625 414.484375 786.042969 408.375 785.53125 366.058594 C 785.058594 327.144531 784.320312 317.878906 779.300781 288.359375 C 776.210938 270.207031 775.292969 260.601562 773.773438 230.703125 L 773.402344 223.410156 Z M 788.207031 220.207031 C 788.207031 220.703125 779.378906 220.199219 776.074219 219.515625 L 774.074219 219.105469 L 774.074219 206.359375 L 779 206.359375 C 783.539062 206.359375 783.976562 206.46875 784.484375 207.742188 C 785.195312 209.53125 788.207031 219.605469 788.207031 220.207031 Z M 774.292969 199.671875 C 774.476562 198.453125 774.820312 194.34375 775.058594 190.546875 L 775.480469 183.636719 L 777.101562 183.636719 C 777.992188 183.636719 782.167969 184.046875 786.378906 184.550781 C 790.59375 185.054688 794.960938 185.625 796.082031 185.8125 L 798.117188 186.160156 L 796.804688 188.125 C 794.339844 191.824219 791.964844 197.308594 790.601562 202.480469 C 789.28125 207.460938 789.203125 207.59375 788.507812 205.933594 C 787.28125 203.015625 786.136719 202.523438 779.832031 202.195312 L 773.945312 201.886719 Z M 803.839844 300.632812 C 803.347656 293.191406 802.957031 282.886719 802.957031 277.730469 C 802.957031 272.570312 802.652344 265.664062 802.296875 262.386719 C 801.550781 255.644531 797.414062 235.082031 795.621094 229.183594 C 794.960938 227.046875 794.582031 224.894531 794.773438 224.402344 C 794.960938 223.914062 794.597656 222.9375 793.964844 222.234375 C 793.003906 221.167969 792.832031 220.042969 792.894531 215.347656 C 793.03125 206.214844 796.242188 195.964844 800.925781 189.738281 C 804.308594 185.238281 804.238281 183.410156 800.640625 182.453125 C 798.839844 181.976562 777.796875 179.335938 775.765625 179.335938 C 775.507812 179.335938 775.300781 178.710938 775.292969 177.953125 C 775.269531 175.726562 773.078125 171.53125 771.351562 170.398438 C 770.125 169.59375 767.046875 169.160156 758.242188 168.542969 C 751.914062 168.101562 740.515625 167.175781 732.914062 166.488281 C 676.859375 161.417969 627.183594 159.601562 575.328125 160.71875 C 571.273438 160.804688 552.058594 161.164062 532.628906 161.511719 C 486.074219 162.351562 470.464844 163.210938 431.875 167.050781 C 394.800781 170.742188 325.78125 175.824219 290.570312 177.464844 C 220.0625 180.742188 218.496094 180.789062 200.566406 180 C 191.105469 179.589844 177.695312 178.863281 170.765625 178.386719 C 139.027344 176.222656 113.949219 174.273438 100.117188 172.902344 C 67.425781 169.660156 51.996094 169.289062 47.105469 171.625 C 43.792969 173.210938 42.070312 176.585938 40.796875 183.984375 L 39.730469 190.171875 L 30.738281 190.882812 C 20.570312 191.683594 17.792969 192.386719 17.792969 194.15625 C 17.792969 194.808594 18.210938 195.503906 18.722656 195.703125 C 19.453125 195.984375 19.128906 196.636719 17.222656 198.703125 C 11.527344 204.882812 8.058594 215.675781 4.5 238.300781 C 2.433594 251.4375 3.335938 286.480469 6.71875 324.597656 C 8.382812 343.382812 9.960938 364.132812 10.730469 377.421875 C 12.050781 400.1875 12.859375 414.726562 13.160156 421.03125 C 13.355469 425.085938 13.933594 436.351562 14.445312 446.066406 C 15.722656 470.375 15.722656 503.765625 14.441406 548.699219 C 13.292969 588.933594 13.421875 593.308594 15.890625 598.105469 C 18.835938 603.832031 24.75 606.539062 36.699219 607.625 L 44.242188 608.308594 L 43.867188 612.027344 C 43.65625 614.066406 43.101562 618.085938 42.632812 620.960938 C 40.921875 631.398438 40.851562 634.574219 42.261719 637.761719 C 44.582031 643.003906 49.460938 644.296875 76.152344 646.71875 C 105.882812 649.417969 108.707031 649.523438 146.5 649.394531 C 182.59375 649.269531 195.054688 648.894531 224.214844 647.058594 C 232.160156 646.558594 249.4375 645.730469 262.617188 645.21875 C 275.792969 644.707031 296.113281 643.871094 307.769531 643.367188 C 347.152344 641.664062 378.421875 641.351562 459.519531 641.855469 C 542.308594 642.371094 543.074219 642.390625 583.007812 645.371094 C 595.617188 646.316406 606.742188 646.453125 670.863281 646.453125 C 711.242188 646.453125 751.75 646.699219 760.867188 647.007812 C 776.945312 647.542969 777.554688 647.519531 780.335938 646.292969 C 787.132812 643.289062 790.378906 632.664062 795.511719 596.699219 C 799.820312 566.46875 801.089844 549.007812 801.117188 519.308594 C 801.128906 511.875 801.394531 501.78125 801.714844 496.875 C 802.027344 491.972656 802.726562 476.632812 803.253906 462.789062 C 803.789062 448.941406 804.472656 431.949219 804.796875 425.023438 C 805.113281 418.097656 805.699219 399.992188 806.101562 384.792969 C 806.863281 355.929688 806.445312 340.347656 803.839844 300.632812 " fill-opacity="1" fill-rule="nonzero"/></g></svg>