<svg xmlns="http://www.w3.org/2000/svg" xmlns:xlink="http://www.w3.org/1999/xlink" width="1080" zoomAndPan="magnify" viewBox="0 0 810 809.999993" height="1080" preserveAspectRatio="xMidYMid meet" version="1.0"><defs><clipPath id="33066572a2"><path d="M 16 1 L 794.714844 1 L 794.714844 807 L 16 807 Z M 16 1 " clip-rule="nonzero"/></clipPath></defs><g clip-path="url(#33066572a2)"><path fill="#000000" d="M 65.703125 72.371094 C 83.511719 46.996094 109.644531 32.78125 134.945312 18.546875 C 153.175781 8.285156 173.761719 3.179688 195.699219 2.148438 C 230.195312 0.535156 260.632812 10.46875 287.378906 30.410156 C 303.644531 42.535156 318.027344 57.785156 331.089844 73.4375 C 342.710938 87.363281 352.019531 103.390625 361.148438 119.183594 C 375.011719 143.167969 385.007812 168.863281 391.621094 195.832031 C 398.105469 222.269531 403.582031 248.855469 404.429688 276.195312 C 404.46875 277.382812 405.414062 278.542969 405.941406 279.714844 C 407.238281 278.355469 409.46875 277.132812 409.699219 275.613281 C 412.863281 254.40625 421.402344 235.027344 429.378906 215.390625 C 437.6875 194.933594 448.253906 175.796875 462.464844 158.992188 C 475.375 143.71875 488.859375 128.847656 503.058594 114.777344 C 522.878906 95.144531 542.644531 75.257812 564.195312 57.628906 C 586.226562 39.605469 611.617188 26.808594 639.96875 20.851562 C 683.566406 11.691406 724.394531 15.660156 757.390625 48.847656 C 776.558594 68.128906 787.316406 92.527344 790.765625 119.609375 C 792.699219 134.808594 794.800781 150.230469 794.210938 165.449219 C 793.210938 191.355469 787.90625 216.683594 780.804688 241.75 C 770.246094 279.035156 753.820312 313.761719 737.621094 348.726562 C 724.179688 377.742188 712.789062 407.703125 699.554688 436.816406 C 691.40625 454.742188 681.644531 471.945312 672.34375 489.332031 C 663.417969 506.007812 654.617188 522.777344 644.9375 539.015625 C 624.296875 573.652344 603.191406 608.011719 582.148438 642.410156 C 555.15625 686.519531 528.363281 730.757812 500.742188 774.476562 C 494.207031 784.820312 485.488281 794.140625 476.371094 802.386719 C 468.554688 809.457031 459.589844 806.226562 452.726562 797.722656 C 446.878906 790.476562 439.703125 784.289062 433.011719 777.742188 C 406.867188 752.160156 379.78125 727.460938 354.816406 700.777344 C 336.929688 681.664062 321.453125 660.222656 305.664062 639.246094 C 292.253906 621.429688 275.171875 607.722656 258.152344 593.855469 C 243.441406 581.871094 228.5625 570.085938 213.605469 558.410156 C 180.898438 532.875 149.921875 505.402344 121.433594 475.230469 C 99.667969 452.179688 81.464844 426.480469 65.097656 399.296875 C 45.851562 367.335938 33.214844 332.792969 23.753906 297.078125 C 19.988281 282.867188 19.417969 267.757812 17.9375 253.003906 C 16.84375 242.066406 15.460938 230.960938 16.238281 220.074219 C 18.640625 186.273438 24.203125 153.039062 39.550781 122.292969 C 47.847656 105.667969 56.664062 89.308594 65.703125 72.371094 M 578.488281 101.082031 C 562.089844 107.828125 546.230469 115.394531 535.03125 129.953125 C 518.90625 150.90625 501.1875 170.855469 487.113281 193.109375 C 470.109375 220.003906 455.65625 248.574219 441.113281 276.941406 C 427.890625 302.742188 425.375 331.550781 420.957031 359.644531 C 418.71875 373.863281 418.609375 388.402344 417.054688 402.742188 C 415.59375 416.210938 403.734375 423.21875 395.578125 415.164062 C 392.328125 411.957031 392.863281 404.957031 391.582031 399.703125 C 391.152344 397.949219 390.429688 396.265625 389.839844 394.550781 C 388.605469 395.976562 386.945312 397.210938 386.210938 398.859375 C 383 406.03125 380.378906 413.476562 376.917969 420.515625 C 374.15625 426.132812 363.566406 430.101562 359.433594 426.773438 C 354.398438 422.722656 348.976562 418.578125 353.121094 409.886719 C 359.875 395.722656 365.535156 381.019531 371.332031 366.417969 C 374.003906 359.679688 376.691406 353.40625 372.816406 345.296875 C 362.789062 324.292969 353.886719 302.738281 344.894531 281.253906 C 330.195312 246.152344 310.609375 213.925781 287.402344 183.921875 C 275.535156 168.578125 262.660156 154.007812 250.113281 139.199219 C 225.925781 110.640625 199.015625 85.402344 163.667969 71.105469 C 149.910156 65.539062 135.660156 61.539062 120.628906 66.453125 C 106.855469 70.957031 99.339844 82.800781 91.046875 93.148438 C 85.355469 100.257812 81.0625 109.066406 78.285156 117.796875 C 73.835938 131.765625 71.101562 146.128906 74.167969 161.195312 C 76.429688 172.3125 75.6875 184.09375 78.398438 195.054688 C 86.058594 226 97.523438 255.703125 112.4375 283.863281 C 127.773438 312.808594 143.566406 341.546875 160.210938 369.757812 C 178.410156 400.605469 197.316406 431.070312 216.820312 461.113281 C 238.800781 494.964844 261.597656 528.296875 284.441406 561.582031 C 293.296875 574.476562 302.03125 587.84375 313.03125 598.773438 C 324.683594 610.351562 338.667969 619.710938 352.164062 629.292969 C 375.328125 645.734375 398.550781 662.140625 422.417969 677.519531 C 440.476562 689.15625 459.59375 699.152344 478.214844 709.917969 C 483.5625 713.011719 487.59375 713.4375 490.824219 706.628906 C 493.96875 699.992188 498.5 694.019531 502.25 687.65625 C 517.0625 662.515625 531.800781 637.332031 546.582031 612.175781 C 559.503906 590.191406 572.210938 568.074219 585.445312 546.28125 C 600.203125 521.96875 615.71875 498.113281 630.417969 473.765625 C 649.167969 442.707031 666.445312 410.722656 686.132812 380.28125 C 714.175781 336.914062 724.421875 288.570312 728.585938 238.46875 C 729.988281 221.574219 728.320312 204.324219 726.910156 187.332031 C 725.394531 169.078125 720.816406 151.625 710.769531 135.738281 C 691.511719 105.289062 663.980469 88.390625 628.269531 88.949219 C 611.925781 89.207031 595.683594 96.21875 578.488281 101.082031 M 376.109375 261.488281 C 372.039062 241.015625 369.738281 219.980469 363.4375 200.21875 C 356.226562 177.597656 346.824219 155.40625 335.929688 134.289062 C 317.59375 98.746094 293.3125 67.816406 258.128906 46.90625 C 231.222656 30.917969 202.71875 26.59375 172.472656 34.980469 C 169.414062 35.832031 166.621094 37.644531 163.703125 39.011719 C 166.632812 40.257812 169.5625 41.5 172.488281 42.753906 C 173.261719 43.085938 173.996094 43.523438 174.789062 43.796875 C 200.855469 52.882812 222.542969 69.1875 241.988281 87.855469 C 260.851562 105.964844 277.710938 126.195312 295.007812 145.882812 C 320.859375 175.300781 340.53125 208.878906 358.648438 243.347656 C 364.894531 255.234375 369.449219 268 374.984375 280.269531 C 375.59375 281.617188 377.582031 282.34375 378.929688 283.359375 C 379.363281 281.695312 380.363281 279.949219 380.128906 278.382812 C 379.324219 273.019531 378.089844 267.722656 376.109375 261.488281 M 49.75 199.511719 C 48.230469 203.382812 45.433594 207.253906 45.425781 211.128906 C 45.402344 223.621094 46.320312 236.121094 47.046875 248.609375 C 47.476562 255.953125 47.320312 263.496094 49.003906 270.578125 C 54.429688 293.34375 59.753906 315.996094 68.476562 338.042969 C 85.613281 381.34375 110.601562 419.277344 141.695312 453.304688 C 157.105469 470.171875 174.34375 485.386719 191.035156 501.054688 C 200.308594 509.757812 210.101562 517.910156 219.789062 526.15625 C 221.3125 527.453125 223.527344 527.9375 225.421875 528.796875 C 224.742188 526.722656 224.527344 524.320312 223.3125 522.632812 C 215.722656 512.074219 207.273438 502.082031 200.296875 491.144531 C 184.875 466.96875 169.921875 442.492188 155.21875 417.875 C 135.035156 384.09375 114.105469 350.679688 95.621094 315.976562 C 76.03125 279.199219 56.558594 241.984375 49.75 199.511719 M 633.183594 60.980469 C 645.59375 58.625 657.316406 61.816406 668.855469 65.707031 C 701.933594 76.871094 725.445312 99.4375 741.445312 129.605469 C 752.816406 151.042969 757.90625 174.433594 756.347656 198.984375 C 756.226562 200.9375 757.460938 202.980469 758.0625 204.980469 C 759.285156 202.9375 761.46875 200.9375 761.570312 198.839844 C 762.441406 180.601562 763.730469 162.324219 763.261719 144.101562 C 762.957031 132.378906 760.867188 120.480469 757.902344 109.09375 C 747.203125 68.03125 714.722656 44.808594 672.625 46.683594 C 658.683594 47.304688 644.855469 51.066406 631.058594 53.808594 C 627.117188 54.59375 623.464844 56.839844 619.679688 58.417969 C 623.574219 59.269531 627.46875 60.125 633.183594 60.980469 M 399.808594 697.136719 C 398.128906 696.0625 396.550781 694.738281 394.738281 693.976562 C 392.304688 692.949219 389.683594 692.351562 387.144531 691.570312 C 388.40625 693.503906 389.34375 695.777344 390.976562 697.316406 C 409.945312 715.222656 428.9375 733.101562 448.199219 750.683594 C 449.835938 752.179688 454.160156 752.667969 456.015625 751.566406 C 459.554688 749.46875 462.769531 746.238281 464.980469 742.753906 C 465.957031 741.214844 464.992188 736.546875 463.484375 735.621094 C 442.710938 722.859375 421.683594 710.503906 399.808594 697.136719 Z M 399.808594 697.136719 " fill-opacity="1" fill-rule="nonzero"/></g></svg>