<svg xmlns="http://www.w3.org/2000/svg" xmlns:xlink="http://www.w3.org/1999/xlink" width="1920" zoomAndPan="magnify" viewBox="0 0 1440 809.999993" height="1080" preserveAspectRatio="xMidYMid meet" version="1.0"><rect x="-144" width="1728" fill="#ffffff00" y="-80.999999" height="971.999992" fill-opacity="1"/><rect x="-144" width="1728" fill="#ffffff00" y="-80.999999" height="971.999992" fill-opacity="1"/><rect x="-144" width="1728" fill="#ffffff00" y="-80.999999" height="971.999992" fill-opacity="1"/><path fill="#000000" d="M 899.574219 459.152344 L 881.386719 259.953125 C 878.28125 233.777344 854.765625 214.699219 829.035156 217.804688 C 805.964844 220.46875 788.21875 239.988281 787.332031 263.503906 L 786 291.007812 C 753.167969 237.769531 687.066406 129.519531 686.179688 128.632812 C 679.523438 117.539062 668.875 110 656.453125 107.335938 C 644.03125 104.675781 631.609375 106.449219 620.960938 113.546875 C 611.644531 119.316406 604.988281 128.1875 601.441406 138.390625 L 589.460938 119.316406 C 582.808594 108.222656 572.160156 100.683594 559.738281 98.019531 C 547.316406 95.359375 534.890625 97.132812 524.246094 104.230469 C 502.503906 117.984375 495.851562 147.710938 509.160156 170.335938 L 515.816406 181.425781 C 505.167969 180.097656 494.519531 182.3125 485.203125 188.082031 C 463.464844 201.835938 456.808594 231.558594 470.117188 254.1875 L 493.1875 291.898438 C 482.539062 290.566406 471.894531 292.785156 462.578125 298.550781 C 441.726562 311.417969 435.070312 340.699219 448.824219 363.324219 L 572.601562 565.632812 C 606.765625 621.53125 670.648438 663.679688 737.640625 663.679688 C 762.929688 663.679688 788.21875 657.910156 813.0625 644.601562 C 813.0625 644.601562 813.507812 644.601562 813.507812 644.15625 L 827.703125 634.839844 C 863.195312 612.214844 884.492188 586.484375 896.027344 551.878906 C 904.457031 526.589844 903.570312 503.074219 901.351562 479.5625 C 900.460938 468.472656 899.574219 459.152344 899.574219 459.152344 Z M 879.609375 546.109375 C 869.40625 576.722656 850.328125 599.347656 818.386719 619.757812 L 804.191406 628.628906 C 723 672.109375 630.277344 625.96875 587.6875 556.3125 L 463.90625 354.007812 C 455.035156 339.8125 459.472656 321.179688 473.222656 312.304688 C 486.976562 303.875 505.167969 308.3125 513.597656 322.066406 L 592.125 450.726562 C 594.785156 454.71875 600.109375 456.046875 604.101562 453.832031 C 608.09375 451.167969 609.425781 445.84375 607.207031 441.851562 L 486.535156 243.539062 C 477.660156 229.339844 482.097656 210.707031 495.851562 201.835938 C 509.605469 192.960938 527.792969 197.84375 536.222656 211.59375 C 536.222656 211.59375 656.898438 409.019531 656.898438 409.464844 C 659.558594 413.457031 664.882812 414.789062 668.875 412.570312 C 672.867188 409.910156 674.199219 404.585938 671.980469 400.148438 L 525.132812 159.6875 C 516.257812 145.492188 520.695312 126.855469 534.449219 117.984375 C 548.203125 109.109375 566.390625 113.992188 574.820312 127.746094 C 574.820312 127.746094 721.671875 367.761719 721.671875 368.203125 C 724.332031 372.199219 729.65625 373.527344 733.648438 371.3125 C 737.640625 368.648438 738.972656 363.324219 736.753906 359.332031 C 736.753906 359.332031 621.40625 170.335938 621.40625 170.335938 C 612.53125 156.136719 616.96875 137.503906 630.722656 128.632812 C 637.375 124.640625 644.917969 123.308594 652.460938 125.082031 C 660.445312 126.855469 666.65625 131.738281 671.09375 138.390625 C 671.980469 140.167969 768.253906 296.332031 786 325.171875 C 788.21875 328.277344 791.769531 330.050781 795.761719 329.164062 C 799.308594 328.277344 802.414062 324.726562 802.414062 321.175781 L 805.078125 264.390625 C 805.519531 249.75 816.613281 237.328125 830.808594 235.550781 C 846.78125 233.777344 861.421875 245.757812 863.640625 262.171875 C 863.640625 262.171875 883.160156 470.246094 884.046875 481.335938 C 885.824219 503.519531 887.152344 523.925781 879.609375 546.109375 Z M 879.609375 546.109375 " fill-opacity="1" fill-rule="nonzero"/><path fill="#000000" d="M 479.878906 584.265625 C 459.914062 577.609375 442.613281 555.871094 433.738281 538.125 C 423.089844 517.273438 420.875 492.871094 427.972656 471.132812 C 429.300781 466.253906 427.085938 461.371094 422.203125 460.042969 C 417.324219 458.710938 412.445312 460.929688 411.113281 465.808594 C 402.683594 491.984375 405.34375 521.265625 418.210938 546.554688 C 423.535156 556.757812 443.054688 590.476562 474.554688 601.125 C 478.992188 602.453125 484.316406 600.234375 485.648438 595.355469 C 486.976562 590.917969 484.757812 586.039062 479.878906 584.265625 Z M 479.878906 584.265625 " fill-opacity="1" fill-rule="nonzero"/><path fill="#000000" d="M 502.0625 539.898438 C 491.859375 536.351562 482.542969 524.816406 477.660156 515.5 C 471.894531 504.40625 471.007812 491.539062 474.554688 480.003906 C 475.886719 475.125 473.667969 470.246094 468.789062 468.914062 C 463.90625 467.582031 459.027344 469.800781 457.695312 474.683594 C 452.371094 490.652344 454.148438 508.398438 461.6875 523.484375 C 464.792969 529.695312 476.773438 550.101562 496.292969 556.757812 C 500.730469 558.089844 506.054688 555.871094 507.386719 550.992188 C 509.160156 546.554688 506.941406 541.671875 502.0625 539.898438 Z M 502.0625 539.898438 " fill-opacity="1" fill-rule="nonzero"/><path fill="#000000" d="M 955.917969 187.636719 C 949.707031 178.320312 926.636719 147.265625 894.25 140.609375 C 889.371094 139.722656 884.933594 142.828125 883.605469 147.710938 C 882.71875 152.589844 885.824219 157.027344 890.703125 158.355469 C 911.109375 162.351562 930.1875 181.425781 940.835938 197.84375 C 953.703125 216.917969 958.582031 240.875 954.589844 263.503906 C 953.703125 268.382812 956.808594 272.820312 961.6875 273.707031 L 963.460938 273.707031 C 967.453125 273.707031 971.449219 270.601562 972.335938 266.609375 C 977.214844 239.101562 971.449219 210.265625 955.917969 187.636719 Z M 955.917969 187.636719 " fill-opacity="1" fill-rule="nonzero"/><path fill="#000000" d="M 878.28125 186.75 C 873.398438 185.863281 868.964844 188.96875 867.632812 193.847656 C 866.746094 198.730469 869.851562 203.164062 874.730469 204.496094 C 885.378906 206.714844 895.140625 216.917969 900.90625 225.347656 C 907.5625 235.550781 910.222656 247.976562 908.449219 259.953125 C 907.5625 264.832031 910.667969 269.269531 915.546875 270.15625 C 920.425781 271.042969 924.863281 267.9375 925.75 263.058594 C 928.855469 246.644531 925.308594 229.339844 915.546875 215.144531 C 911.996094 209.820312 898.246094 190.742188 878.28125 186.75 Z M 878.28125 186.75 " fill-opacity="1" fill-rule="nonzero"/></svg>