<svg xmlns="http://www.w3.org/2000/svg" xmlns:xlink="http://www.w3.org/1999/xlink" width="1080" zoomAndPan="magnify" viewBox="0 0 810 809.999993" height="1080" preserveAspectRatio="xMidYMid meet" version="1.0"><defs><clipPath id="0ddbc008fa"><path d="M 261.171875 393.796875 L 559.886719 393.796875 L 559.886719 692.242188 L 261.171875 692.242188 Z M 261.171875 393.796875 " clip-rule="nonzero"/></clipPath><clipPath id="30c0cb6511"><path d="M 289 117.75 L 522 117.75 L 522 340 L 289 340 Z M 289 117.75 " clip-rule="nonzero"/></clipPath><clipPath id="b968e81ddb"><path d="M 40.238281 241 L 163 241 L 163 378 L 40.238281 378 Z M 40.238281 241 " clip-rule="nonzero"/></clipPath><clipPath id="e4c53a74f1"><path d="M 648.214844 241.203125 L 769.984375 241.203125 L 769.984375 377.507812 L 648.214844 377.507812 Z M 648.214844 241.203125 " clip-rule="nonzero"/></clipPath></defs><g clip-path="url(#0ddbc008fa)"><path fill="#000000" d="M 549.242188 513.867188 C 548.808594 513.867188 548.371094 513.898438 547.9375 513.960938 C 545.574219 514.300781 543.480469 515.546875 542.050781 517.460938 C 540.621094 519.378906 540.019531 521.734375 540.367188 524.097656 C 541.269531 530.347656 541.730469 536.738281 541.730469 543.101562 C 541.730469 615.46875 482.835938 674.34375 410.441406 674.34375 C 338.050781 674.34375 279.160156 615.46875 279.160156 543.101562 C 279.160156 470.734375 338.050781 411.859375 410.441406 411.859375 C 428.171875 411.859375 445.363281 415.328125 461.542969 422.167969 C 470.125 425.796875 478.351562 430.371094 485.996094 435.753906 C 487.515625 436.824219 489.296875 437.390625 491.140625 437.390625 C 494.054688 437.390625 496.792969 435.972656 498.472656 433.59375 C 501.3125 429.5625 500.34375 423.96875 496.308594 421.125 C 487.625 415.003906 478.273438 409.808594 468.515625 405.6875 C 450.121094 397.90625 430.578125 393.960938 410.441406 393.960938 C 390.308594 393.960938 370.765625 397.90625 352.371094 405.6875 C 334.605469 413.199219 318.648438 423.949219 304.953125 437.640625 C 291.253906 451.339844 280.496094 467.285156 272.980469 485.046875 C 265.199219 503.441406 261.253906 522.972656 261.253906 543.101562 C 261.253906 563.230469 265.199219 582.765625 272.980469 601.15625 C 280.496094 618.917969 291.253906 634.867188 304.953125 648.5625 C 318.648438 662.253906 334.605469 673.003906 352.371094 680.515625 C 370.765625 688.296875 390.304688 692.242188 410.441406 692.242188 C 430.582031 692.242188 450.121094 688.296875 468.515625 680.515625 C 486.285156 673.003906 502.238281 662.253906 515.9375 648.5625 C 529.636719 634.867188 540.390625 618.917969 547.902344 601.15625 C 555.6875 582.765625 559.632812 563.230469 559.632812 543.101562 C 559.632812 535.878906 559.109375 528.625 558.082031 521.53125 C 557.449219 517.160156 553.648438 513.867188 549.242188 513.867188 " fill-opacity="1" fill-rule="nonzero"/></g><path fill="#000000" d="M 579.554688 401.363281 C 577.847656 399.839844 575.648438 399.003906 573.363281 399.003906 C 570.714844 399.003906 568.183594 400.132812 566.425781 402.105469 L 403.917969 584.011719 L 354.5625 524.90625 C 352.789062 522.78125 350.1875 521.5625 347.417969 521.5625 C 345.25 521.5625 343.132812 522.332031 341.46875 523.726562 C 339.5625 525.3125 338.390625 527.550781 338.167969 530.023438 C 337.945312 532.503906 338.699219 534.914062 340.285156 536.816406 L 396.542969 604.183594 C 398.273438 606.261719 400.820312 607.476562 403.523438 607.523438 L 403.6875 607.527344 C 406.328125 607.523438 408.855469 606.390625 410.617188 604.421875 L 580.292969 414.488281 C 583.707031 410.667969 583.375 404.78125 579.554688 401.363281 " fill-opacity="1" fill-rule="nonzero"/><g clip-path="url(#30c0cb6511)"><path fill="#000000" d="M 409.710938 283.800781 C 408.378906 283 406.882812 282.597656 405.378906 282.597656 C 403.882812 282.597656 402.382812 283 401.054688 283.800781 L 351.402344 313.730469 L 364.535156 257.28125 C 365.242188 254.253906 364.210938 251.082031 361.863281 249.050781 L 318.042969 211.09375 L 375.808594 206.132812 C 378.90625 205.871094 381.605469 203.910156 382.8125 201.046875 L 405.378906 147.660156 L 427.949219 201.046875 C 429.160156 203.910156 431.855469 205.871094 434.953125 206.132812 L 492.71875 211.09375 L 448.902344 249.050781 C 446.550781 251.082031 445.523438 254.253906 446.226562 257.28125 L 459.359375 313.730469 Z M 463.699219 258.40625 L 518.691406 210.773438 C 521.238281 208.570312 522.214844 205.058594 521.175781 201.851562 C 520.132812 198.648438 517.273438 196.378906 513.917969 196.09375 L 441.421875 189.867188 L 413.105469 122.867188 C 411.792969 119.769531 408.75 117.753906 405.378906 117.753906 C 402.015625 117.753906 398.972656 119.769531 397.660156 122.867188 L 369.335938 189.867188 L 296.847656 196.09375 C 293.492188 196.378906 290.632812 198.648438 289.59375 201.851562 C 288.550781 205.058594 289.527344 208.570312 292.074219 210.773438 L 347.066406 258.40625 L 330.582031 329.25 C 329.820312 332.53125 331.097656 335.949219 333.820312 337.929688 C 335.285156 338.992188 337.015625 339.527344 338.746094 339.527344 C 340.242188 339.527344 341.738281 339.128906 343.074219 338.324219 L 405.378906 300.761719 L 467.6875 338.324219 C 469.027344 339.128906 470.519531 339.527344 472.015625 339.527344 C 472.023438 339.527344 472.03125 339.527344 472.039062 339.527344 C 476.667969 339.527344 480.417969 335.777344 480.417969 331.148438 C 480.417969 330.289062 480.289062 329.457031 480.046875 328.671875 L 463.699219 258.40625 " fill-opacity="1" fill-rule="nonzero"/></g><path fill="#000000" d="M 295.960938 262.914062 L 277.828125 278.617188 C 275.617188 280.53125 274.648438 283.515625 275.3125 286.363281 L 285.457031 329.972656 L 247.101562 306.855469 C 244.597656 305.339844 241.460938 305.339844 238.953125 306.855469 L 200.597656 329.972656 L 210.742188 286.363281 C 211.40625 283.515625 210.4375 280.535156 208.226562 278.617188 L 174.375 249.296875 L 219 245.464844 C 221.917969 245.214844 224.453125 243.375 225.59375 240.679688 L 243.027344 199.433594 L 260.460938 240.679688 C 262.15625 244.691406 266.785156 246.570312 270.796875 244.875 C 274.8125 243.179688 276.691406 238.550781 274.996094 234.539062 L 250.296875 176.105469 C 249.058594 173.183594 246.199219 171.289062 243.027344 171.289062 C 239.859375 171.289062 236.996094 173.183594 235.761719 176.105469 L 212.910156 230.15625 L 154.425781 235.179688 C 151.265625 235.449219 148.578125 237.585938 147.597656 240.597656 C 146.617188 243.613281 147.535156 246.921875 149.933594 248.996094 L 194.296875 287.421875 L 181 344.582031 C 180.28125 347.667969 181.484375 350.882812 184.046875 352.746094 C 185.425781 353.75 187.050781 354.253906 188.683594 354.253906 C 190.089844 354.253906 191.503906 353.878906 192.757812 353.121094 L 243.027344 322.816406 L 293.292969 353.121094 C 296.007812 354.753906 299.441406 354.613281 302.003906 352.746094 C 304.570312 350.882812 305.769531 347.667969 305.050781 344.582031 L 291.757812 287.421875 L 306.292969 274.832031 C 309.585938 271.980469 309.941406 266.996094 307.089844 263.710938 C 304.238281 260.417969 299.253906 260.058594 295.960938 262.914062 " fill-opacity="1" fill-rule="nonzero"/><path fill="#000000" d="M 616.464844 287.421875 L 660.832031 248.996094 C 663.226562 246.921875 664.148438 243.613281 663.167969 240.597656 C 662.191406 237.585938 659.5 235.449219 656.339844 235.179688 L 597.851562 230.15625 L 575.003906 176.105469 C 573.769531 173.183594 570.910156 171.289062 567.738281 171.289062 C 564.570312 171.289062 561.703125 173.183594 560.46875 176.105469 L 535.773438 234.539062 C 534.074219 238.550781 535.953125 243.179688 539.964844 244.875 C 543.984375 246.570312 548.609375 244.691406 550.304688 240.679688 L 567.738281 199.433594 L 585.171875 240.679688 C 586.3125 243.375 588.847656 245.214844 591.765625 245.464844 L 636.390625 249.296875 L 602.539062 278.617188 C 600.328125 280.535156 599.359375 283.515625 600.023438 286.363281 L 610.167969 329.972656 L 571.808594 306.855469 C 569.304688 305.339844 566.171875 305.339844 563.664062 306.855469 L 525.308594 329.972656 L 535.453125 286.363281 C 536.117188 283.515625 535.148438 280.53125 532.9375 278.617188 L 514.804688 262.914062 C 511.507812 260.058594 506.53125 260.417969 503.675781 263.710938 C 500.824219 266.996094 501.179688 271.980469 504.472656 274.832031 L 519.007812 287.421875 L 505.710938 344.582031 C 504.992188 347.667969 506.195312 350.882812 508.757812 352.746094 C 511.320312 354.613281 514.757812 354.757812 517.46875 353.121094 L 567.738281 322.816406 L 618.007812 353.121094 C 619.265625 353.878906 620.675781 354.253906 622.082031 354.253906 C 623.710938 354.253906 625.339844 353.75 626.71875 352.746094 C 629.28125 350.882812 630.484375 347.667969 629.765625 344.582031 L 616.464844 287.421875 " fill-opacity="1" fill-rule="nonzero"/><g clip-path="url(#b968e81ddb)"><path fill="#000000" d="M 150.253906 307.46875 L 136.167969 319.675781 C 134.09375 321.46875 133.1875 324.265625 133.808594 326.9375 L 140.277344 354.742188 L 115.820312 340 C 113.46875 338.582031 110.53125 338.582031 108.183594 340 L 83.722656 354.742188 L 90.191406 326.9375 C 90.8125 324.265625 89.90625 321.46875 87.832031 319.675781 L 66.246094 300.976562 L 94.703125 298.535156 C 97.433594 298.300781 99.816406 296.570312 100.882812 294.046875 L 112 267.746094 L 123.117188 294.046875 C 124.707031 297.804688 129.046875 299.570312 132.808594 297.976562 C 136.570312 296.390625 138.332031 292.054688 136.742188 288.289062 L 118.8125 245.875 C 117.65625 243.136719 114.972656 241.359375 112 241.359375 C 109.027344 241.359375 106.34375 243.136719 105.1875 245.875 L 88.996094 284.183594 L 47.542969 287.742188 C 44.582031 287.996094 42.0625 289.996094 41.144531 292.820312 C 40.222656 295.652344 41.085938 298.75 43.335938 300.695312 L 74.773438 327.929688 L 65.351562 368.4375 C 64.679688 371.332031 65.804688 374.347656 68.207031 376.09375 C 70.613281 377.835938 73.832031 377.976562 76.375 376.445312 L 112 354.964844 L 147.628906 376.445312 C 148.804688 377.152344 150.125 377.503906 151.445312 377.503906 C 152.976562 377.503906 154.503906 377.03125 155.792969 376.09375 C 158.199219 374.347656 159.324219 371.332031 158.652344 368.4375 L 149.226562 327.929688 L 159.941406 318.644531 C 163.03125 315.96875 163.363281 311.300781 160.6875 308.214844 C 158.015625 305.125 153.34375 304.792969 150.253906 307.46875 " fill-opacity="1" fill-rule="nonzero"/></g><g clip-path="url(#e4c53a74f1)"><path fill="#000000" d="M 769.621094 292.820312 C 768.703125 289.996094 766.183594 287.996094 763.222656 287.742188 L 721.773438 284.183594 L 705.578125 245.875 C 704.421875 243.136719 701.738281 241.359375 698.765625 241.359375 C 695.792969 241.359375 693.109375 243.136719 691.953125 245.875 L 674.023438 288.289062 C 672.433594 292.054688 674.191406 296.386719 677.957031 297.976562 C 681.71875 299.570312 686.058594 297.808594 687.648438 294.046875 L 698.765625 267.746094 L 709.882812 294.046875 C 710.949219 296.570312 713.328125 298.300781 716.0625 298.535156 L 744.515625 300.976562 L 722.933594 319.675781 C 720.859375 321.46875 719.953125 324.265625 720.574219 326.9375 L 727.042969 354.742188 L 702.582031 340 C 700.234375 338.582031 697.296875 338.582031 694.945312 340 L 670.488281 354.742188 L 676.960938 326.9375 C 677.578125 324.265625 676.671875 321.46875 674.59375 319.675781 L 660.507812 307.46875 C 657.421875 304.796875 652.75 305.125 650.078125 308.214844 C 647.398438 311.300781 647.738281 315.96875 650.820312 318.644531 L 661.542969 327.929688 L 652.117188 368.4375 C 651.441406 371.332031 652.566406 374.347656 654.972656 376.09375 C 657.375 377.835938 660.59375 377.976562 663.140625 376.445312 L 698.765625 354.964844 L 734.394531 376.445312 C 735.570312 377.152344 736.890625 377.503906 738.207031 377.503906 C 739.742188 377.503906 741.265625 377.03125 742.558594 376.09375 C 744.960938 374.347656 746.085938 371.332031 745.414062 368.4375 L 735.992188 327.929688 L 767.429688 300.695312 C 769.679688 298.75 770.542969 295.652344 769.621094 292.820312 " fill-opacity="1" fill-rule="nonzero"/></g></svg>