<svg xmlns="http://www.w3.org/2000/svg" xmlns:xlink="http://www.w3.org/1999/xlink" width="1080" zoomAndPan="magnify" viewBox="0 0 810 809.999993" height="1080" preserveAspectRatio="xMidYMid meet" version="1.0"><defs><clipPath id="bf4643bc7a"><path d="M 13.925781 13.925781 L 796.175781 13.925781 L 796.175781 796.175781 L 13.925781 796.175781 Z M 13.925781 13.925781 " clip-rule="nonzero"/></clipPath></defs><g clip-path="url(#bf4643bc7a)"><path fill="#000000" d="M 405.050781 13.925781 C 189.304688 13.925781 13.925781 189.304688 13.925781 405.050781 C 13.925781 620.792969 189.304688 796.175781 405.050781 796.175781 C 620.792969 796.175781 796.175781 620.792969 796.175781 405.050781 C 796.175781 189.304688 620.792969 13.925781 405.050781 13.925781 Z M 405.050781 765.980469 C 206.046875 765.980469 44.121094 604.054688 44.121094 405.050781 C 44.121094 206.046875 206.046875 44.121094 405.050781 44.121094 C 604.054688 44.121094 765.980469 206.046875 765.980469 405.050781 C 765.980469 604.054688 604.054688 765.980469 405.050781 765.980469 Z M 405.050781 765.980469 " fill-opacity="1" fill-rule="nonzero"/></g><path fill="#000000" d="M 288.496094 205.734375 C 273.945312 205.734375 262.210938 217.625 262.210938 232.015625 L 262.210938 307.269531 C 262.210938 321.820312 274.101562 333.550781 288.496094 333.550781 C 302.886719 333.550781 314.777344 321.664062 314.777344 307.269531 L 314.777344 232.015625 C 314.777344 217.625 303.042969 205.734375 288.496094 205.734375 Z M 288.496094 205.734375 " fill-opacity="1" fill-rule="nonzero"/><path fill="#000000" d="M 612.035156 261.273438 C 582.621094 253.449219 552.425781 252.667969 523.328125 258.457031 C 541.316406 243.4375 562.59375 232.328125 585.90625 226.070312 C 594.042969 223.882812 598.734375 215.589844 596.542969 207.609375 C 594.355469 199.476562 586.0625 194.78125 578.082031 196.972656 C 529.113281 210.113281 487.8125 241.246094 461.839844 284.742188 C 461.683594 284.898438 461.683594 285.054688 461.683594 285.210938 C 461.371094 285.679688 461.214844 286.148438 461.058594 286.617188 C 460.902344 287.085938 460.746094 287.554688 460.589844 287.871094 C 460.433594 288.339844 460.277344 288.808594 460.277344 289.277344 C 460.121094 289.746094 460.121094 290.214844 459.964844 290.683594 C 459.964844 291.15625 459.964844 291.625 459.964844 292.09375 C 459.964844 292.5625 459.964844 293.03125 459.964844 293.5 C 459.964844 293.972656 460.121094 294.441406 460.121094 294.910156 C 460.277344 295.378906 460.277344 295.847656 460.433594 296.316406 C 460.589844 296.785156 460.746094 297.257812 460.902344 297.726562 C 461.058594 298.195312 461.214844 298.664062 461.527344 299.132812 C 461.683594 299.289062 461.683594 299.445312 461.683594 299.601562 C 461.996094 300.074219 462.15625 300.542969 462.46875 300.855469 C 462.625 301.011719 462.625 301.167969 462.78125 301.167969 C 463.25 301.949219 463.875 302.574219 464.5 303.203125 C 464.65625 303.359375 464.8125 303.515625 464.96875 303.515625 C 465.597656 304.140625 466.222656 304.609375 467.003906 305.078125 C 467.003906 305.078125 467.160156 305.234375 467.160156 305.234375 C 467.160156 305.234375 467.160156 305.234375 467.316406 305.234375 C 467.628906 305.390625 468.097656 305.703125 468.570312 305.859375 C 468.726562 306.015625 469.039062 306.015625 469.195312 306.175781 C 469.507812 306.332031 469.820312 306.332031 469.976562 306.488281 C 471.542969 307.113281 473.261719 307.425781 474.984375 307.425781 C 476.859375 307.425781 478.738281 307.113281 480.617188 306.332031 C 481.242188 306.015625 481.867188 305.859375 482.335938 305.546875 C 519.726562 284.742188 562.90625 279.421875 604.210938 290.371094 C 612.347656 292.5625 620.636719 287.710938 622.671875 279.734375 C 624.863281 271.597656 620.167969 263.308594 612.035156 261.273438 Z M 612.035156 261.273438 " fill-opacity="1" fill-rule="nonzero"/><path fill="#000000" d="M 591.382812 459.808594 C 583.246094 457.617188 574.953125 462.46875 572.921875 470.445312 C 554.460938 539.285156 483.589844 580.117188 414.75 561.8125 C 406.613281 559.621094 398.324219 564.472656 396.289062 572.453125 C 394.097656 580.585938 398.949219 588.878906 406.925781 590.914062 C 420.695312 594.667969 434.460938 596.386719 448.074219 596.386719 C 518.476562 596.386719 583.089844 549.296875 602.019531 478.269531 C 604.210938 470.132812 599.359375 461.839844 591.382812 459.808594 Z M 591.382812 459.808594 " fill-opacity="1" fill-rule="nonzero"/></svg>