<svg xmlns="http://www.w3.org/2000/svg" xmlns:xlink="http://www.w3.org/1999/xlink" width="1920" zoomAndPan="magnify" viewBox="0 0 1440 809.999993" height="1080" preserveAspectRatio="xMidYMid meet" version="1.0"><defs><clipPath id="e340ffcc1e"><path d="M 408.519531 81 L 1056.519531 81 L 1056.519531 729 L 408.519531 729 Z M 408.519531 81 " clip-rule="nonzero"/></clipPath></defs><rect x="-144" width="1728" fill="#ffffff" y="-80.999999" height="971.999992" fill-opacity="1"/><rect x="-144" width="1728" fill="#ffffff" y="-80.999999" height="971.999992" fill-opacity="1"/><g clip-path="url(#e340ffcc1e)"><path fill="#d9d2cc" d="M 732.519531 81 C 553.800781 81 408.519531 226.28125 408.519531 405 C 408.519531 583.71875 553.800781 729 732.519531 729 C 911.238281 729 1056.519531 583.71875 1056.519531 405 C 1056.519531 226.28125 911.238281 81 732.519531 81 Z M 732.519531 703.988281 C 567.667969 703.988281 433.53125 569.851562 433.53125 405 C 433.53125 240.148438 567.667969 106.011719 732.519531 106.011719 C 897.371094 106.011719 1031.507812 240.148438 1031.507812 405 C 1031.507812 569.851562 897.371094 703.988281 732.519531 703.988281 Z M 732.519531 703.988281 " fill-opacity="1" fill-rule="nonzero"/></g><path fill="#d9d2cc" d="M 635.96875 239.890625 C 623.914062 239.890625 614.195312 249.738281 614.195312 261.664062 L 614.195312 324 C 614.195312 336.054688 624.042969 345.773438 635.96875 345.773438 C 647.890625 345.773438 657.738281 335.921875 657.738281 324 L 657.738281 261.664062 C 657.738281 249.738281 648.019531 239.890625 635.96875 239.890625 Z M 635.96875 239.890625 " fill-opacity="1" fill-rule="nonzero"/><path fill="#d9d2cc" d="M 903.980469 285.898438 C 879.617188 279.417969 854.601562 278.769531 830.496094 283.566406 C 845.402344 271.125 863.027344 261.921875 882.335938 256.738281 C 889.078125 254.921875 892.964844 248.054688 891.148438 241.445312 C 889.335938 234.707031 882.464844 230.816406 875.855469 232.632812 C 835.292969 243.519531 801.078125 269.308594 779.5625 305.335938 C 779.433594 305.46875 779.433594 305.597656 779.433594 305.726562 C 779.175781 306.113281 779.046875 306.503906 778.917969 306.894531 C 778.785156 307.28125 778.65625 307.671875 778.527344 307.929688 C 778.398438 308.320312 778.269531 308.707031 778.269531 309.097656 C 778.136719 309.484375 778.136719 309.875 778.007812 310.261719 C 778.007812 310.652344 778.007812 311.039062 778.007812 311.429688 C 778.007812 311.816406 778.007812 312.207031 778.007812 312.59375 C 778.007812 312.984375 778.136719 313.371094 778.136719 313.761719 C 778.269531 314.148438 778.269531 314.539062 778.398438 314.929688 C 778.527344 315.316406 778.65625 315.707031 778.785156 316.09375 C 778.917969 316.484375 779.046875 316.871094 779.304688 317.261719 C 779.433594 317.390625 779.433594 317.519531 779.433594 317.648438 C 779.695312 318.039062 779.824219 318.425781 780.082031 318.6875 C 780.210938 318.816406 780.210938 318.945312 780.34375 318.945312 C 780.730469 319.59375 781.25 320.113281 781.765625 320.628906 C 781.898438 320.761719 782.027344 320.890625 782.15625 320.890625 C 782.675781 321.40625 783.191406 321.796875 783.839844 322.1875 C 783.839844 322.1875 783.96875 322.316406 783.96875 322.316406 C 783.96875 322.316406 783.96875 322.316406 784.101562 322.316406 C 784.359375 322.445312 784.75 322.703125 785.136719 322.832031 C 785.265625 322.964844 785.527344 322.964844 785.65625 323.09375 C 785.914062 323.222656 786.171875 323.222656 786.304688 323.351562 C 787.597656 323.871094 789.023438 324.128906 790.449219 324.128906 C 792.003906 324.128906 793.5625 323.871094 795.117188 323.222656 C 795.632812 322.964844 796.152344 322.832031 796.542969 322.574219 C 827.515625 305.335938 863.285156 300.929688 897.5 310.003906 C 904.238281 311.816406 911.109375 307.800781 912.792969 301.191406 C 914.609375 294.453125 910.71875 287.582031 903.980469 285.898438 Z M 903.980469 285.898438 " fill-opacity="1" fill-rule="nonzero"/><path fill="#d9d2cc" d="M 886.871094 450.359375 C 880.132812 448.546875 873.265625 452.5625 871.582031 459.171875 C 856.289062 516.195312 797.578125 550.023438 740.554688 534.859375 C 733.816406 533.042969 726.945312 537.0625 725.261719 543.671875 C 723.449219 550.410156 727.464844 557.28125 734.074219 558.964844 C 745.480469 562.074219 756.882812 563.5 768.160156 563.5 C 826.480469 563.5 880.003906 524.492188 895.6875 465.652344 C 897.5 458.914062 893.484375 452.042969 886.871094 450.359375 Z M 886.871094 450.359375 " fill-opacity="1" fill-rule="nonzero"/></svg>