<svg xmlns="http://www.w3.org/2000/svg" xmlns:xlink="http://www.w3.org/1999/xlink" width="1920" zoomAndPan="magnify" viewBox="0 0 1440 809.999993" height="1080" preserveAspectRatio="xMidYMid meet" version="1.0"><defs><clipPath id="2f7cc85e0f"><path d="M 241 314 L 1198 314 L 1198 359.460938 L 241 359.460938 Z M 241 314 " clip-rule="nonzero"/></clipPath></defs><rect x="-144" width="1728" fill="#ffffff" y="-80.999999" height="971.999992" fill-opacity="1"/><rect x="-144" width="1728" fill="#ffffff" y="-80.999999" height="971.999992" fill-opacity="1"/><g clip-path="url(#2f7cc85e0f)"><path fill="#d9d2cc" d="M 1197.925781 341.753906 C 1197.464844 331.175781 1193.546875 322.898438 1186.402344 322.667969 C 1173.953125 322.210938 1161.503906 317.609375 1149.054688 319.679688 C 1135.683594 321.980469 1123.003906 319.910156 1110.097656 316.460938 C 1107.558594 315.769531 1105.253906 314.851562 1102.949219 316.230469 C 1096.957031 320.140625 1090.730469 318.070312 1084.507812 317.378906 C 1075.285156 316.460938 1066.296875 312.320312 1057.074219 318.070312 C 1055.691406 318.988281 1053.386719 318.300781 1051.542969 317.839844 C 1026.875 310.710938 1001.746094 316.460938 976.851562 315.769531 C 970.855469 319.910156 964.632812 314.851562 958.640625 316 C 951.722656 317.378906 945.039062 317.378906 938.121094 316.691406 C 926.363281 315.769531 914.378906 313.011719 902.851562 318.53125 C 900.777344 319.449219 898.011719 318.988281 895.472656 318.988281 C 884.871094 319.21875 874.265625 318.988281 863.660156 319.910156 C 857.898438 320.371094 852.597656 320.828125 847.523438 316.921875 C 844.757812 314.621094 841.53125 316 838.535156 316.921875 C 827.238281 320.597656 812.714844 323.359375 804.183594 321.289062 C 797.039062 319.679688 790.585938 320.140625 783.667969 321.519531 C 778.828125 322.4375 773.753906 322.898438 768.683594 323.128906 C 711.511719 324.738281 654.34375 326.578125 597.171875 330.257812 C 567.664062 332.097656 538.15625 333.476562 508.648438 335.085938 C 497.351562 335.777344 486.054688 337.617188 474.761719 337.847656 C 433.265625 338.996094 391.769531 338.996094 350.277344 341.984375 C 337.597656 342.90625 325.609375 346.355469 312.929688 347.273438 C 291.722656 349.113281 270.28125 351.875 249.074219 354.171875 C 246.078125 354.632812 243.078125 355.324219 241.925781 359.460938 C 268.4375 357.851562 294.71875 355.550781 320.769531 354.632812 C 342.667969 353.710938 364.566406 354.171875 386.46875 354.171875 C 402.144531 354.171875 417.820312 354.402344 433.496094 353.941406 C 460.007812 353.253906 486.285156 351.183594 512.796875 351.183594 C 528.011719 351.183594 542.996094 350.261719 557.980469 349.34375 C 573.65625 348.421875 589.332031 349.113281 604.777344 348.195312 C 652.957031 345.433594 701.140625 342.90625 749.550781 344.972656 C 758.078125 341.296875 767.070312 346.585938 775.601562 344.285156 C 787.585938 340.835938 799.113281 341.066406 811.101562 343.824219 C 814.558594 344.746094 818.707031 344.054688 822.398438 343.824219 C 833 343.136719 843.605469 342.214844 854.210938 341.753906 C 882.566406 340.375 910.6875 340.375 938.8125 344.515625 C 940.65625 344.746094 942.964844 345.433594 944.347656 344.515625 C 954.949219 338.765625 966.246094 344.285156 977.3125 342.214844 C 984.6875 340.835938 993.679688 341.066406 1001.515625 342.445312 C 1015.578125 344.972656 1029.640625 344.285156 1043.703125 345.894531 C 1052.695312 347.042969 1060.992188 343.824219 1069.753906 344.054688 C 1082.894531 344.515625 1096.265625 344.515625 1109.40625 345.203125 C 1128.769531 346.125 1148.363281 345.894531 1167.496094 349.574219 C 1175.105469 351.183594 1182.480469 350.492188 1190.089844 350.261719 C 1197.234375 349.804688 1198.15625 348.421875 1197.925781 341.753906 Z M 1197.925781 341.753906 " fill-opacity="1" fill-rule="nonzero"/></g></svg>